<svg xmlns="http://www.w3.org/2000/svg" viewBox="0 0 1920 1033"><title>about-me-header</title><path fill="#5245db" d="M0-22h1920.5v1055.5H0z" data-name="bg"/><g data-name="behind leaf"><path d="M1785.48 1026.67c41.28-11.16 73.6-30.66 72.19-43.55s-36-14.3-77.29-3.14-72.19 43.55-72.19 43.55 36.01 14.3 77.29 3.14z" fill="#4fc6b7" data-name="&lt;Group&gt;"/><path d="M1785.48 1026.67c-41.28 11.16-77.29-3.14-77.29-3.14l149.48-40.41c1.41 12.88-30.91 32.39-72.19 43.55z" data-name="&lt;Group&gt;" opacity=".13"/><path d="M1734.64 988.87c41.28-11.16 73.6-30.66 72.19-43.55s-36-14.3-77.29-3.14-72.19 43.55-72.19 43.55 36.01 14.27 77.29 3.14z" fill="#4fc6b7" data-name="&lt;Group&gt;"/><path d="M1734.64 988.87c-41.28 11.16-77.29-3.14-77.29-3.14l149.48-40.41c1.41 12.89-30.91 32.39-72.19 43.55z" data-name="&lt;Group&gt;" opacity=".13"/><path d="M1678.89 959.69c40.73-13 72.12-34 70.13-46.79s-36.63-12.64-77.36.39-70.13 46.79-70.13 46.79 36.63 12.64 77.36-.39z" fill="#4fc6b7" data-name="&lt;Group&gt;"/><path d="M1678.89 959.69c-40.73 13-77.36.39-77.36.39L1749 912.9c2 12.82-29.38 33.77-70.11 46.79z" data-name="&lt;Group&gt;" opacity=".13"/><path d="M1873 894.49c6.67 42.24 2.06 79.7-10.28 83.67s-27.75-27-34.42-69.28 10.28-83.67 10.28-83.67 27.8 27.04 34.42 69.28z" fill="#4fc6b7" data-name="&lt;Group&gt;"/><path d="M1873 894.49c-6.67-42.24-34.42-69.28-34.42-69.28l24.14 153c12.38-4.02 16.99-41.48 10.28-83.72z" data-name="&lt;Group&gt;" opacity=".13"/><path d="M1817.78 863.51c6.67 42.24 2.06 79.7-10.28 83.67s-27.75-27-34.42-69.28 10.28-83.67 10.28-83.67 27.75 27.05 34.42 69.28z" fill="#4fc6b7" data-name="&lt;Group&gt;"/><path d="M1817.78 863.51c-6.67-42.24-34.42-69.28-34.42-69.28l24.14 153c12.34-4.02 16.94-41.48 10.28-83.72z" data-name="&lt;Group&gt;" opacity=".13"/><path d="M1760.13 817.83c7.79 42 4.18 79.62-8.05 83.92s-28.46-26.29-36.25-68.34 8.05-83.92 8.05-83.92 28.46 26.3 36.25 68.34z" fill="#4fc6b7" data-name="&lt;Group&gt;"/><path d="M1760.13 817.83c-7.79-42-36.25-68.34-36.25-68.34l28.2 152.26c12.23-4.3 15.83-41.87 8.05-83.92z" data-name="&lt;Group&gt;" opacity=".13"/><path d="M1695 786.64c14.1 40.37 16.25 78.05 4.82 84.17s-32.14-21.65-46.23-62-4.82-84.17-4.82-84.17 32.09 21.63 46.23 62z" fill="#4fc6b7" data-name="&lt;Group&gt;"/><path d="M1695 786.64c-14.1-40.37-46.23-62-46.23-62l51 146.19c11.43-6.14 9.23-43.83-4.77-84.19z" data-name="&lt;Group&gt;" opacity=".13"/><path d="M1620.9 783.09c25.82 30.91 39.09 62.57 29.65 70.72s-38-10.31-63.83-41.22-29.65-70.72-29.65-70.72 38.02 10.31 63.83 41.22z" fill="#4fc6b7" data-name="&lt;Group&gt;"/><path d="M1620.9 783.09c-25.82-30.91-63.83-41.22-63.83-41.22l93.49 111.94c9.44-8.15-3.84-39.81-29.66-70.72z" data-name="&lt;Group&gt;" opacity=".13"/><path d="M1547.32 793.77c31.35 20 51.82 44.2 45.73 54s-36.44 1.43-67.79-18.61-45.73-54-45.73-54 36.47-1.43 67.79 18.61z" fill="#4fc6b7" data-name="&lt;Group&gt;"/><path d="M1547.32 793.77c-31.35-20-67.79-18.61-67.79-18.61l113.52 72.57c6.09-9.73-14.38-33.91-45.73-53.96z" data-name="&lt;Group&gt;" opacity=".13"/><path d="M1471.05 818.36c36.24 8.44 63.59 24.39 61.11 35.62s-33.88 13.5-70.12 5.06-61.11-35.62-61.11-35.62 33.88-13.5 70.12-5.06z" fill="#4fc6b7" data-name="&lt;Group&gt;"/><path d="M1471.05 818.36c-36.24-8.44-70.12 5.06-70.12 5.06L1532.16 854c2.49-11.25-24.87-27.2-61.11-35.64z" data-name="&lt;Group&gt;" opacity=".13"/><path d="M1415.17 886.18c28.7-13.49 55.43-17.27 59.7-8.44s-15.54 26.92-44.25 40.42-57.27 11.2-57.27 11.2 13.11-29.69 41.82-43.18z" fill="#4fc6b7" data-name="&lt;Group&gt;"/><path d="M1415.17 886.18c-28.7 13.49-41.82 43.18-41.82 43.18l101.52-51.61c-4.27-8.84-31-5.06-59.7 8.43z" data-name="&lt;Group&gt;" opacity=".13"/><path d="M1609.23 925.32c39.66-16 69.43-39.18 66.5-51.82s-37.46-9.92-77.12 6.07-66.5 51.82-66.5 51.82 37.46 9.92 77.12-6.07z" fill="#4fc6b7" data-name="&lt;Group&gt;"/><path d="M1609.23 925.32c-39.66 16-77.12 6.07-77.12 6.07l143.62-57.89c2.94 12.64-26.84 35.84-66.5 51.82z" data-name="&lt;Group&gt;" opacity=".13"/><path d="M1517.31 920.83c33.93-23.4 57.11-51.59 51.77-63s-37.17-1.64-71.1 21.75-51.77 63-51.77 63 37.17 1.65 71.1-21.75z" fill="#4fc6b7" data-name="&lt;Group&gt;"/><path d="M1517.31 920.83c-33.93 23.4-71.1 21.75-71.1 21.75l122.87-84.73c5.34 11.39-17.84 39.59-51.77 62.98z" data-name="&lt;Group&gt;" opacity=".13"/><path d="M1930.23 1056.8c-16.8-17.58-34.29-34.23-52.29-50.21s-36.54-31.19-55.74-45.41c-4.79-3.56-9.62-7.07-14.51-10.47-2.43-1.73-4.89-3.41-7.34-5.1s-4.92-3.36-7.4-5c-9.93-6.54-20-12.9-30.22-18.84s-20.65-11.59-31.26-16.75-21.31-10.11-32.27-14.37-22-8.2-33.26-11.5a321.34 321.34 0 0 0-34.12-8.22 305.28 305.28 0 0 0-69.87-5.09 308.67 308.67 0 0 0-35.09 3.61l-2.19.33-2.17.42-4.35.83-4.36.83c-1.46.27-2.89.65-4.33 1l-8.68 2-8.6 2.35c-1.43.4-2.89.73-4.31 1.19l-4.27 1.34c-2.84.91-5.71 1.74-8.54 2.71-5.63 2-11.33 3.9-16.89 6.18-2.79 1.12-5.62 2.16-8.39 3.34l-8.31 3.59c-1.39.6-2.81 1.15-4.17 1.8l-4.11 1.93q-4.1 2-8.27 3.84a283.87 283.87 0 0 1 30.53-20.19c5.25-3.19 10.78-5.84 16.24-8.69 1.36-.73 2.77-1.33 4.17-2l4.21-1.91 4.21-1.91c1.4-.64 2.85-1.17 4.28-1.76l8.62-3.41 8.77-3c1.47-.49 2.92-1.05 4.41-1.47l4.47-1.3 4.47-1.3 2.24-.65 2.26-.56 9.07-2.2c3-.68 6.11-1.2 9.17-1.81 1.53-.28 3.06-.61 4.6-.86l4.63-.69 4.63-.68 2.32-.33 2.33-.23a268.38 268.38 0 0 1 37.47-1.65 276.51 276.51 0 0 1 37.4 3.32l4.65.7c1.55.24 3.07.58 4.61.86l4.61.89c1.54.29 3.08.59 4.59 1l9.15 2.1 9.07 2.39c12 3.41 23.85 7.42 35.46 12s22.88 9.82 33.94 15.45c2.76 1.42 5.52 2.84 8.23 4.35s5.47 2.93 8.13 4.5l8 4.65 7.91 4.85c10.46 6.6 20.69 13.52 30.58 20.89 2.48 1.83 5 3.66 7.38 5.56s4.9 3.72 7.28 5.68q7.21 5.76 14.22 11.75a555 555 0 0 1 52.48 51.43q12.21 13.68 23.45 28.14a357.21 357.21 0 0 1 21.07 29.76z" fill="#4fc6b7" data-name="oqeQgB.tif"/><path d="M1892.55 100.53c25.93-26.48 41.5-55.25 34.78-64.26s-33.19 5.15-59.12 31.63-34.78 64.26-34.78 64.26 33.19-5.16 59.12-31.63z" fill="#4fc6b7" data-name="&lt;Group&gt;"/><path d="M1892.55 100.53c-25.93 26.48-59.12 31.63-59.12 31.63l93.9-95.9c6.73 9.02-8.84 37.79-34.78 64.27z" data-name="&lt;Group&gt;" opacity=".13"/><path d="M1838 94.64c25.93-26.48 41.5-55.25 34.78-64.26s-33.19 5.15-59.12 31.63-34.78 64.26-34.78 64.26 33.12-5.15 59.12-31.63z" fill="#4fc6b7" data-name="&lt;Group&gt;"/><path d="M1838 94.64c-25.93 26.48-59.12 31.63-59.12 31.63l93.9-95.9c6.68 9.02-8.89 37.79-34.78 64.27z" data-name="&lt;Group&gt;" opacity=".13"/><path d="M1783.48 97.35c24.7-27.64 38.94-57.09 31.82-65.78s-32.92 6.66-57.62 34.29-31.82 65.78-31.82 65.78 32.93-6.64 57.62-34.29z" fill="#4fc6b7" data-name="&lt;Group&gt;"/><path d="M1783.48 97.35c-24.7 27.64-57.62 34.29-57.62 34.29l89.44-100.07c7.13 8.7-7.12 38.15-31.82 65.78z" data-name="&lt;Group&gt;" opacity=".13"/><path d="M1899.86-36.7c23.55 28.62 36.57 58.63 29.1 67s-32.62-8-56.17-36.62-29.1-67-29.1-67 32.62 7.99 56.17 36.62z" fill="#4fc6b7" data-name="&lt;Group&gt;"/><path d="M1899.86-36.7c-23.55-28.62-56.17-36.62-56.17-36.62L1929 30.32c7.43-8.39-5.59-38.4-29.14-67.02z" data-name="&lt;Group&gt;" opacity=".13"/><path d="M1845-35.55c23.55 28.62 36.57 58.63 29.1 67s-32.62-8-56.17-36.62-29.1-67-29.1-67 32.58 8 56.17 36.62z" fill="#4fc6b7" data-name="&lt;Group&gt;"/><path d="M1845-35.55c-23.55-28.62-56.17-36.62-56.17-36.62l85.27 103.65c7.43-8.4-5.6-38.41-29.1-67.03z" data-name="&lt;Group&gt;" opacity=".13"/><path d="M1781.81-44.33c24.3 28 38.12 57.64 30.87 66.23s-32.82-7.13-57.12-35.12-30.87-66.23-30.87-66.23 32.82 7.13 57.12 35.12z" fill="#4fc6b7" data-name="&lt;Group&gt;"/><path d="M1781.81-44.33c-24.3-28-57.12-35.12-57.12-35.12l88 101.35c7.24-8.59-6.58-38.25-30.88-66.23z" data-name="&lt;Group&gt;" opacity=".13"/><path d="M1719.41-39c28.28 24 46.45 51.16 40.6 60.76s-33.53-2-61.8-26-40.6-60.76-40.6-60.76 33.52 2.05 61.8 26z" fill="#4fc6b7" data-name="&lt;Group&gt;"/><path d="M1719.41-39c-28.28-24-61.8-26-61.8-26L1760 21.77c5.86-9.59-12.31-36.77-40.59-60.77z" data-name="&lt;Group&gt;" opacity=".13"/><path d="M1662.53-9.09c32.87 11.74 56.71 29.56 53.24 39.79s-32.93 9-65.81-2.73-53.24-39.79-53.24-39.79 32.94-9.01 65.81 2.73z" fill="#4fc6b7" data-name="&lt;Group&gt;"/><path d="M1662.53-9.09c-32.87-11.74-65.81-2.73-65.81-2.73l119 42.53c3.52-10.24-20.32-28.05-53.19-39.8z" data-name="&lt;Group&gt;" opacity=".13"/><path d="M1612.26 31.24c32.23 1.19 58.14 10.24 57.88 20.21s-26.6 17.09-58.82 15.89-57.88-20.21-57.88-20.21 26.56-17.08 58.82-15.89z" fill="#4fc6b7" data-name="&lt;Group&gt;"/><path d="M1612.26 31.24c-32.23-1.19-58.82 15.89-58.82 15.89l116.71 4.31c.25-9.96-25.66-19.01-57.89-20.2z" data-name="&lt;Group&gt;" opacity=".13"/><path d="M1566.09 83.14c30.78-9.62 58.23-9.74 61.31-.25s-19.38 25-50.16 34.6-61.31.25-61.31.25 19.38-24.98 50.16-34.6z" fill="#4fc6b7" data-name="&lt;Group&gt;"/><path d="M1566.09 83.14c-30.78 9.62-50.16 34.6-50.16 34.6l111.47-34.85c-3.08-9.49-30.53-9.38-61.31.25z" data-name="&lt;Group&gt;" opacity=".13"/><path d="M1554.16 158.36c15.51-22.7 33.82-37.27 40.89-32.55s.23 26.95-15.29 49.64S1541.9 209 1541.9 209s-3.26-27.94 12.26-50.64z" fill="#4fc6b7" data-name="&lt;Group&gt;"/><path d="M1554.16 158.36c-15.51 22.7-12.26 50.64-12.26 50.64l53.1-83.18c-7-4.72-25.33 9.85-40.84 32.54z" data-name="&lt;Group&gt;" opacity=".13"/><path d="M1716.34 102.3c22.6-29.38 34.64-59.79 26.9-67.94s-32.34 9.06-54.94 38.43-26.9 67.94-26.9 67.94 32.34-9.06 54.94-38.43z" fill="#4fc6b7" data-name="&lt;Group&gt;"/><path d="M1716.34 102.3c-22.6 29.38-54.94 38.43-54.94 38.43l81.84-106.38c7.76 8.15-4.3 38.57-26.9 67.95z" data-name="&lt;Group&gt;" opacity=".13"/><path d="M1645.69 139.35c15.06-32.39 20-63.65 11-69.81s-28.49 15.11-43.55 47.51-11 69.81-11 69.81 28.49-15.11 43.55-47.51z" fill="#4fc6b7" data-name="&lt;Group&gt;"/><path d="M1645.69 139.35c-15.06 32.39-43.55 47.51-43.55 47.51l54.54-117.31c9 6.16 4.08 37.45-10.99 69.8z" data-name="&lt;Group&gt;" opacity=".13"/><path d="M2013.93 59.41c-20.28-5.75-40.67-10.5-61.14-14.52s-41-7.24-61.6-9.42c-5.15-.55-10.29-1-15.44-1.45-2.57-.22-5.15-.4-7.72-.58s-5.15-.34-7.72-.48c-10.3-.52-20.59-.86-30.86-.79s-20.52.42-30.72 1.23-20.37 1.82-30.42 3.45-20.05 3.56-29.9 6a278.55 278.55 0 0 0-29.1 8.86 264.62 264.62 0 0 0-54.44 26.91 267.58 267.58 0 0 0-24.63 18.12l-1.49 1.26-1.44 1.27-2.89 2.53-2.89 2.54c-1 .84-1.87 1.75-2.81 2.63l-5.61 5.3-5.39 5.53c-.9.93-1.84 1.82-2.7 2.78l-2.6 2.87c-1.72 1.93-3.5 3.81-5.19 5.78-3.32 4-6.75 7.89-9.9 12-1.59 2.06-3.25 4.09-4.8 6.19l-4.63 6.34c-.77 1.06-1.59 2.09-2.33 3.18l-2.22 3.25q-2.21 3.26-4.49 6.5a246.13 246.13 0 0 1 13.93-28.5c2.52-4.69 5.49-9.1 8.31-13.63 1.43-2.25 3-4.38 4.55-6.58l2.31-3.28c.77-1.1 1.62-2.13 2.42-3.2l4.94-6.34 5.22-6.13c.88-1 1.72-2.07 2.65-3l2.77-2.93 2.77-2.94 1.39-1.47 1.44-1.41 5.81-5.63c2-1.84 4-3.58 6.05-5.38 1-.89 2-1.8 3.06-2.66l3.15-2.55 3.17-2.54 1.59-1.26L1646 66a232.62 232.62 0 0 1 27.27-17.71 239.7 239.7 0 0 1 29.4-14l3.78-1.52c1.26-.5 2.55-.92 3.83-1.38 2.56-.88 5.1-1.87 7.69-2.66l7.75-2.46 7.82-2.2q15.72-4.11 31.75-6.65c10.68-1.64 21.41-2.72 32.15-3.38s21.49-.82 32.21-.49 21.4 1 32 2.16c2.66.28 5.31.56 8 .9s5.3.63 7.94 1c5.28.76 10.54 1.62 15.79 2.53a481 481 0 0 1 61.82 15.35q15.14 4.85 29.89 10.72a309.73 309.73 0 0 1 28.84 13.2z" fill="#4fc6b7" data-name="oqeQgB.tif"/><path d="M1891.61 922c21.54 13.34 43.06 19.42 48.07 13.59s-8.4-21.37-29.94-34.71-48.07-13.59-48.07-13.59 8.4 21.38 29.94 34.71z" fill="#4fc6b7" data-name="&lt;Group&gt;"/><path d="M1891.61 922c-21.54-13.34-29.94-34.71-29.94-34.71l78 48.3c-5 5.85-26.52-.24-48.06-13.59z" data-name="&lt;Group&gt;" opacity=".13"/><path d="M1887.37 884.71c21.54 13.34 43.06 19.42 48.07 13.59s-8.4-21.37-29.94-34.71-48.06-13.59-48.06-13.59 8.39 21.38 29.93 34.71z" fill="#4fc6b7" data-name="&lt;Group&gt;"/><path d="M1887.37 884.71c-21.54-13.34-29.94-34.71-29.94-34.71l78 48.3c-5 5.84-26.52-.25-48.06-13.59z" data-name="&lt;Group&gt;" opacity=".13"/><path d="M1877.42 848.78c22.13 12.34 43.9 17.44 48.64 11.39s-9.36-21-31.49-33.31-48.64-11.39-48.64-11.39 9.36 20.97 31.49 33.31z" fill="#4fc6b7" data-name="&lt;Group&gt;"/><path d="M1877.42 848.78c-22.13-12.34-31.49-33.31-31.49-33.31l80.13 44.7c-4.74 6.06-26.51.96-48.64-11.39z" data-name="&lt;Group&gt;" opacity=".13"/><path d="M1930.34 752.19c-2.92 23.68-11.24 42.25-18.58 41.46s-10.93-20.62-8-44.3 18.58-41.46 18.58-41.46 10.92 20.62 8 44.3z" fill="#4fc6b7" data-name="&lt;Group&gt;"/><path d="M1930.34 752.19c2.92-23.68-8-44.3-8-44.3l-10.57 85.76c7.33.79 15.65-17.78 18.57-41.46z" data-name="&lt;Group&gt;" opacity=".13"/><path d="M1895.92 724.69c4 21.67 1.86 40.31-4.83 41.63s-15.37-15.19-19.4-36.86 4.83-41.63 4.83-41.63 15.38 15.17 19.4 36.86z" fill="#4fc6b7" data-name="&lt;Group&gt;"/><path d="M1895.92 724.69c-4-21.67-19.4-36.86-19.4-36.86l14.57 78.49c6.69-1.32 8.86-19.96 4.83-41.63z" data-name="&lt;Group&gt;" opacity=".13"/><path d="M1854.4 701.65c11 19.09 15.2 37.38 9.33 40.86s-19.56-9.19-30.58-28.28-9.33-40.86-9.33-40.86 19.56 9.19 30.58 28.28z" fill="#4fc6b7" data-name="&lt;Group&gt;"/><path d="M1854.4 701.65c-11-19.09-30.58-28.28-30.58-28.28l39.91 69.14c5.87-3.51 1.69-21.77-9.33-40.86z" data-name="&lt;Group&gt;" opacity=".13"/><path d="M1802.44 704.94c17.46 7 29.91 17 27.82 22.41s-17.94 4.18-35.4-2.78a74.57 74.57 0 0 1-28-20.24s18.14-6.33 35.58.61z" fill="#4fc6b7" data-name="&lt;Group&gt;"/><path d="M1802.44 704.94c-17.46-7-35.61-.61-35.61-.61l63.43 23c2.1-5.41-10.36-15.44-27.82-22.39z" data-name="&lt;Group&gt;" opacity=".13"/><path d="M1864.09 804.73c23 10.68 45.06 14.17 49.34 7.79s-10.88-20.22-33.85-30.9-49.34-7.79-49.34-7.79 10.87 20.22 33.85 30.9z" fill="#4fc6b7" data-name="&lt;Group&gt;"/><path d="M1864.09 804.73c-23-10.68-33.85-30.9-33.85-30.9l83.19 38.69c-4.28 6.38-26.37 2.9-49.34-7.79z" data-name="&lt;Group&gt;" opacity=".13"/><path d="M1828.81 763.15c23.86 5.2 45.44 3.81 48.21-3.1s-14.34-16.74-38.2-21.95-48.21 3.1-48.21 3.1a75.83 75.83 0 0 0 38.2 21.95z" fill="#4fc6b7" data-name="&lt;Group&gt;"/><path d="M1828.81 763.15a75.83 75.83 0 0 1-38.2-21.95L1877 760c-2.75 7-24.33 8.36-48.19 3.15z" data-name="&lt;Group&gt;" opacity=".13"/><path d="M1937.18 996.83c.81-14.38.93-28.69.55-42.95s-1.3-28.44-2.93-42.5a383.62 383.62 0 0 0-7-41.68c-1.59-6.84-3.35-13.62-5.41-20.31s-4.26-13.31-6.85-19.78c-10.16-25.91-24.91-50-44.84-69.42a182.86 182.86 0 0 0-15.77-13.72c-1.35-1.12-2.81-2.08-4.21-3.14s-2.83-2.07-4.3-3l-4.37-3-4.5-2.77c-12-7.4-25-13.32-38.45-18.6q2.66.49 5.31 1c1.77.35 3.55.69 5.3 1.15l5.26 1.34c1.75.46 3.47 1 5.22 1.53 3.51 1 6.89 2.29 10.34 3.5 1.72.62 3.38 1.37 5.07 2.05s3.38 1.39 5 2.19a160.68 160.68 0 0 1 19.35 10.5l4.62 3c1.52 1 3 2.15 4.49 3.23.74.55 1.5 1.08 2.23 1.64l2.17 1.72c1.44 1.16 2.93 2.27 4.29 3.52a159.1 159.1 0 0 1 15.9 15.67 163.9 163.9 0 0 1 13.71 17.52 187.2 187.2 0 0 1 11.44 19.06q5.09 9.87 9.18 20.18c2.69 6.88 5 13.88 7.06 20.94s3.76 14.21 5.14 21.41a297.77 297.77 0 0 1 5.09 43.49 328.67 328.67 0 0 1-1 43.53c-.65 7.21-1.52 14.4-2.69 21.54-.59 3.57-1.22 7.12-1.93 10.66s-1.5 7.02-2.47 10.5z" fill="#4fc6b7" data-name="oqeQgB.tif"/></g><g data-name="Layer 1"><g data-name="happy crop"><path d="M-38.37 943.45c-5-18.43-57.37-185.15 69.14-285.33 0 0 33.66-31.45 90.62-32.83 27-.65 54.79 10 74.6 28.18 15.08 13.8 25.47 31.84 31.83 51.14a186.09 186.09 0 0 1 8.11 40c6.23 63.16-15.37 135.54-48.34 189.46a173.67 173.67 0 0 1-15 21.1c-2.54 3-8.71 11.55-18.17 15.67C148.43 973.42-61.42 994-61.42 994c-.91 0 23.28-49.67 23.05-50.55z" fill="#1c1c1c" stroke="#000" stroke-miterlimit="10" stroke-width="2.08"/><path d="M-72.64 1022.76a2.07 2.07 0 0 1-1.44-2.43c2.86-12.88 52.26-144.83 104-140.38 0 0 2.49.64 3.12-3.62l2.26-9.27s3.31-9.73 10.6-6.11c0 0 1.27.12 2.52 2.06 0 0 22.21 26 61.15 15.23l-1-3.2s7.21-3.28 10.69 3.21c0 0 3.77 7.79 1.65 20.72 0 0 21.33 7.55 29 26.53 0 0 29.61 91.6 4.89 141.16a2.19 2.19 0 0 1-2.56 1.25z" fill="#4c4c4c" stroke="#000" stroke-miterlimit="10" stroke-width="2.08"/><path d="M150.8 912.42c-8.91 17.74-29.88 53.73-51.49 66.86 0 0 49.44 9.74 71.12-21.62" fill="#1c1c1c" stroke="#000" stroke-miterlimit="10" stroke-width="2.08"/><path d="M52.92 852.9s-2.2 7.33-4.35 9.5c0 0 19.19 24.91 61 15.84 0 0-1.37-6.71-1-10.54 0 .01-32.72 1.56-55.65-14.8z" fill="#f8e6d3" stroke="#000" stroke-miterlimit="10" stroke-width="2.08"/><path data-name="ear" d="M1.56 776.78s-7-14.22-10.17 2.54c0 0-.26 12.95 10.69 16.23l1.18.35S1 777 1.56 776.78z" fill="#f8e6d3" stroke="#000" stroke-miterlimit="10" stroke-width="2.08"/><path d="M6.42 744.91s-26.23 76.77 45.47 110.55C63.6 861 77.93 865.34 95.4 868c0 0 91.78 17.93 111.21-78.83 0 0-26.56-8-32.87-35.17l-.46 13.61s-25.34-16-30.08-80.67c0 0-25.29 45.71-67.75 57 0 0 4.88-11.44 5.14-17.15 0 0-24.15 15.37-43.58 17.41l3.91-10.62s-19.11 10.67-34.5 11.33z" fill="#f8e6d3" stroke="#000" stroke-miterlimit="10" stroke-width="2.08"/><path fill="#fff" stroke="#000" stroke-linecap="round" stroke-miterlimit="10" stroke-width="4.16" d="M35.2 755.62l26.52 3.24m84.85 16.85l26.44 3.81"/><ellipse cx="46.83" cy="777.99" rx="9.02" ry="17.61" transform="rotate(-81.98 46.834 778)" fill="#fff" stroke="#000" stroke-miterlimit="10" stroke-width="2.08"/><circle cx="47.12" cy="778.03" r="8" transform="rotate(-73.31 47.088 777.99)"/><ellipse cx="155.3" cy="798.52" rx="9.02" ry="17.61" transform="rotate(-81.98 155.308 798.52)" fill="#fff" stroke="#000" stroke-miterlimit="10" stroke-width="2.08"/><circle cx="155.98" cy="798.61" r="8.09" transform="rotate(-73.31 155.939 798.576)"/><path fill="none" stroke="#000" stroke-linecap="round" stroke-miterlimit="10" stroke-width="3.12" d="M99.52 802.1l-3.12 10.4 5.27 1.58"/><path fill="none" stroke="#000" stroke-linecap="round" stroke-miterlimit="10" stroke-width="4.16" d="M84.57 841.31l14.03 1.04"/><path d="M153.14 585.25s-20.76 12.7-23.73 43.14c0 0 .66-13.9-9.06-16.29" fill="none" stroke="#000" stroke-linecap="round" stroke-miterlimit="10" stroke-width="3.12"/><path d="M156.48 578.74s-9.09-17.56 1.17-23.06c0 0 11.47-1.21 1.05 23.72zm4.85.73s6.58-18.65 17.61-14.93c0 0 8.74 7.53-16.58 17zm-.55 4.24s19.47-3.46 21.67 8c0 0-2.25 11.32-23-6zm-2.52 1.14s7.34 18.36-3.41 22.84c0 0-11.54.09 1.26-23.71zm-3.45-1.67s-18.84 6-22.54-5c0 0 .72-11.52 23.57 2.93z" fill="#fff" stroke="#231f20" stroke-linecap="round" stroke-miterlimit="10" stroke-width="2.08"/><circle cx="158.27" cy="582.48" r="4.13" transform="rotate(-73.31 158.24 582.452)" fill="#f8daa4" stroke="#231f20" stroke-linecap="round" stroke-miterlimit="10" stroke-width="2.08"/><path d="M144.56 617.27s-5.56-11.85-15.16 11.12" fill="none" stroke="#000" stroke-linecap="round" stroke-miterlimit="10" stroke-width="3.12"/><path data-name="ear" d="M201.27 810.34s11-10.51 8.32 5.68c0 0-4.07 11.76-15 11.07l-1.18-.07s8.31-16.31 7.86-16.68z" fill="#f8e6d3" stroke="#000" stroke-miterlimit="10" stroke-width="2.08"/><path d="M82.47 834.75a2.07 2.07 0 0 0-2.29 2.49c.95 4.48 5.51 8.28 11.41 9.07s11.3-1.68 13.39-5.76a2.07 2.07 0 0 0-1.55-3z"/><ellipse cx="161.49" cy="826.35" rx="5.4" ry="10.54" transform="rotate(-81.98 161.501 826.361)" fill="#f39c9c"/><ellipse cx="37.41" cy="804.83" rx="5.4" ry="10.54" transform="rotate(-81.98 37.417 804.839)" fill="#f39c9c"/></g></g><g data-name="big leaf"><path d="M95.59 1065.64c-39.82-7.64-71.75-23.79-71.33-36.08s33-16.06 72.86-8.43 71.33 36.08 71.33 36.08-33.04 16.07-72.86 8.43z" fill="#4fc6b7" data-name="&lt;Group&gt;"/><path d="M95.59 1065.64c39.82 7.64 72.86-8.43 72.86-8.43l-144.19-27.65c-.43 12.29 31.51 28.44 71.33 36.08z" data-name="&lt;Group&gt;" opacity=".13"/><path d="M141 1026.31c-39.82-7.64-71.75-23.79-71.33-36.08s33-16.06 72.86-8.43 71.33 36.08 71.33 36.08-33.05 16.06-72.86 8.43z" fill="#4fc6b7" data-name="&lt;Group&gt;"/><path d="M141 1026.31c39.82 7.64 72.86-8.43 72.86-8.43l-144.2-27.65c-.43 12.29 31.51 28.44 71.34 36.08z" data-name="&lt;Group&gt;" opacity=".13"/><path d="M191.64 994.78c-39.43-9.44-70.59-27-69.61-39.29s33.74-14.54 73.17-5.1 69.61 39.29 69.61 39.29-33.74 14.55-73.17 5.1z" fill="#4fc6b7" data-name="&lt;Group&gt;"/><path d="M191.64 994.78c39.43 9.44 73.17-5.1 73.17-5.1L122 955.49c-1 12.26 30.22 29.85 69.64 39.29z" data-name="&lt;Group&gt;" opacity=".13"/><path d="M3.46 946.84c-3.32 40.41 3.68 75.5 15.63 78.39s24.34-27.53 27.66-67.93-15.63-78.39-15.63-78.39-24.34 27.52-27.66 67.93z" fill="#4fc6b7" data-name="&lt;Group&gt;"/><path d="M3.46 946.84c3.32-40.41 27.65-67.94 27.65-67.94l-12 146.33C7.14 1022.35.14 987.25 3.46 946.84z" data-name="&lt;Group&gt;" opacity=".13"/><path d="M53.53 913.65c-3.32 40.41 3.68 75.5 15.63 78.39s24.33-27.53 27.65-67.94-15.63-78.39-15.63-78.39-24.33 27.53-27.65 67.94z" fill="#4fc6b7" data-name="&lt;Group&gt;"/><path d="M53.53 913.65c3.32-40.41 27.65-67.94 27.65-67.94L69.16 992c-11.95-2.85-18.95-37.94-15.63-78.35z" data-name="&lt;Group&gt;" opacity=".13"/><path d="M104.81 866.39c-4.39 40.3 1.67 75.58 13.54 78.78s25.06-26.87 29.45-67.18-13.54-78.78-13.54-78.78-25.05 26.87-29.45 67.18z" fill="#4fc6b7" data-name="&lt;Group&gt;"/><path d="M104.81 866.39c4.39-40.3 29.45-67.18 29.45-67.18l-15.91 146c-11.87-3.21-17.93-38.52-13.54-78.82z" data-name="&lt;Group&gt;" opacity=".13"/><path d="M164.24 832.29c-10.48 39.17-9.85 74.95 1.39 79.92s28.85-22.74 39.37-61.91-1.39-79.92-1.39-79.92-28.9 22.74-39.37 61.91z" fill="#4fc6b7" data-name="&lt;Group&gt;"/><path d="M164.24 832.29c10.48-39.17 39.33-61.91 39.33-61.91l-37.94 141.83c-11.25-4.97-11.87-40.75-1.39-79.92z" data-name="&lt;Group&gt;" opacity=".13"/><path d="M234 823.7c-22.23 31.05-32.54 61.92-23 69s35.22-12.44 57.45-43.49 23-69 23-69-35.22 12.44-57.45 43.49z" fill="#4fc6b7" data-name="&lt;Group&gt;"/><path d="M234 823.7c22.23-31.05 57.45-43.49 57.45-43.49L211 892.66c-9.54-7.04.77-37.91 23-68.96z" data-name="&lt;Group&gt;" opacity=".13"/><path d="M304.33 828.61c-28.22 21.16-45.88 45.45-39.43 54.25s34.56-1.22 62.78-22.39 39.43-54.25 39.43-54.25-34.56 1.23-62.78 22.39z" fill="#4fc6b7" data-name="&lt;Group&gt;"/><path d="M304.33 828.61c28.22-21.16 62.78-22.39 62.78-22.39L264.9 882.86c-6.45-8.8 11.2-33.09 39.43-54.25z" data-name="&lt;Group&gt;" opacity=".13"/><path d="M378.18 846.47c-33.67 10.54-58.41 27.55-55.26 38s33 10.37 66.65-.17 55.26-38 55.26-38-32.98-10.36-66.65.17z" fill="#4fc6b7" data-name="&lt;Group&gt;"/><path d="M378.18 846.47c33.67-10.54 66.65-.17 66.65-.17l-121.91 38.17c-3.15-10.47 21.6-27.47 55.26-38z" data-name="&lt;Group&gt;" opacity=".13"/><path d="M435.81 906.65c-28.09-10.73-53.63-12.41-57-3.76s16.6 24.36 44.69 35.09 54.94 6.54 54.94 6.54-14.54-27.14-42.63-37.87z" fill="#4fc6b7" data-name="&lt;Group&gt;"/><path d="M435.81 906.65c28.09 10.73 42.59 37.87 42.59 37.87l-99.63-41.63c3.41-8.65 28.95-6.97 57.04 3.76z" data-name="&lt;Group&gt;" opacity=".13"/><path d="M255.08 957.37c-38.63-12.31-68.42-32.15-66.54-44.3s34.72-12 73.35.29 66.54 44.3 66.54 44.3-34.72 12.02-73.35-.29z" fill="#4fc6b7" data-name="&lt;Group&gt;"/><path d="M255.08 957.37c38.63 12.31 73.35.29 73.35.29l-139.89-44.59c-1.88 12.15 27.91 31.98 66.54 44.3z" data-name="&lt;Group&gt;" opacity=".13"/><path d="M341.68 946.63c-33.73-19.73-57.64-44.75-53.4-55.89s35-4.18 68.77 15.55 53.4 55.89 53.4 55.89-35.03 4.18-68.77-15.55z" fill="#4fc6b7" data-name="&lt;Group&gt;"/><path d="M341.68 946.63c33.73 19.73 68.77 15.55 68.77 15.55l-122.17-71.44c-4.28 11.14 19.67 36.16 53.4 55.89z" data-name="&lt;Group&gt;" opacity=".13"/><path d="M-39.15 1104.36a338.68 338.68 0 0 1 17.77-29.75q9.57-14.47 20.18-28.27a526.21 526.21 0 0 1 46-52.34q6.22-6.14 12.61-12.12c2.11-2 4.31-3.93 6.48-5.89s4.37-3.87 6.59-5.77c8.83-7.66 18-14.93 27.44-21.91s19.24-13.46 29.26-19.64 20.39-11.83 31-17 21.55-9.74 32.68-13.81l8.4-2.9 8.5-2.63c2.83-.9 5.72-1.59 8.57-2.4 1.43-.38 2.86-.8 4.3-1.14l4.34-1a262.22 262.22 0 0 1 35.15-5.79 254.56 254.56 0 0 1 35.55-1.09l2.22.06 2.22.14 4.43.31 4.42.33c1.47.13 2.94.33 4.41.49 2.94.36 5.87.64 8.79 1.06l8.73 1.44 2.18.37 2.16.46 4.32.91 4.31.91c1.44.29 2.85.72 4.28 1.08l8.51 2.25 8.39 2.62c1.39.46 2.8.86 4.17 1.37l4.12 1.51 4.11 1.51c1.37.51 2.75 1 4.08 1.57 5.37 2.31 10.78 4.43 16 7.07a269.15 269.15 0 0 1 30.29 16.94q-4.07-1.49-8.09-3l-4-1.54c-1.34-.52-2.72-.94-4.07-1.41l-8.11-2.81c-2.7-.92-5.46-1.71-8.17-2.57-5.42-1.77-10.94-3.15-16.41-4.65-2.74-.72-5.52-1.3-8.27-2l-4.13-1c-1.37-.33-2.77-.54-4.16-.82l-8.3-1.61-8.35-1.26c-1.39-.19-2.77-.45-4.17-.6l-4.18-.48-4.18-.48-2.08-.24-2.1-.15a292.67 292.67 0 0 0-33.44-.93 289.48 289.48 0 0 0-65.71 9.75 304.69 304.69 0 0 0-31.68 10.18q-15.6 5.91-30.65 13.31c-10.06 4.8-19.86 10.19-29.5 15.86s-19.1 11.71-28.38 18-18.31 13.06-27.25 19.95c-2.23 1.73-4.46 3.46-6.64 5.24s-4.4 3.54-6.58 5.34q-6.57 5.35-13 10.93c-17.15 14.8-33.59 30.51-49.49 46.87s-31.23 33.36-45.87 51.17z" fill="#4fc6b7" data-name="oqeQgB.tif"/><path d="M-7.32 45.91c-6-31.44-3.44-59.57 5.7-62.84s21.41 19.57 27.4 51-5.7 62.84-5.7 62.84-21.41-19.56-27.4-51z" fill="#4fc6b7" data-name="&lt;Group&gt;"/><path d="M-7.32 45.91c6 31.44 27.4 51 27.4 51L-1.62-16.93c-9.14 3.27-11.69 31.41-5.7 62.84z" data-name="&lt;Group&gt;" opacity=".13"/><path d="M30.56 73.9c-4.56-31.67-.72-59.66 8.56-62.51s20.49 20.52 25 52.2-8.56 62.52-8.56 62.52-20.45-20.53-25-52.21z" fill="#4fc6b7" data-name="&lt;Group&gt;"/><path d="M30.56 73.9c4.55 31.68 25 52.2 25 52.2L39.12 11.39C29.84 14.24 26 42.23 30.56 73.9z" data-name="&lt;Group&gt;" opacity=".13"/><path d="M99.48-27.19C68.63-18.68 44.52-4 45.62 5.68s27 10.56 57.86 2 53.86-32.87 53.86-32.87-27-10.51-57.86-2z" fill="#4fc6b7" data-name="&lt;Group&gt;"/><path d="M99.48-27.19c30.85-8.51 57.86 2 57.86 2L45.62 5.68C44.52-4 68.63-18.68 99.48-27.19z" data-name="&lt;Group&gt;" opacity=".13"/><path d="M141.8 6.48C110 10.2 83.94 21.07 83.57 30.77s25.09 14.55 56.88 10.83 58.24-24.29 58.24-24.29-25.1-14.55-56.89-10.83z" fill="#4fc6b7" data-name="&lt;Group&gt;"/><path d="M141.8 6.48c31.79-3.72 56.88 10.83 56.88 10.83L83.57 30.77c.37-9.7 26.43-20.57 58.23-24.29z" data-name="&lt;Group&gt;" opacity=".13"/><path d="M168.42 55.17c-29.25-7.27-54.91-5.85-57.31 3.17s19.38 22.22 48.63 29.49 57.31-3.17 57.31-3.17-19.38-22.22-48.63-29.49z" fill="#4fc6b7" data-name="&lt;Group&gt;"/><path d="M168.42 55.17c29.25 7.27 48.63 29.49 48.63 29.49L111.11 58.34c2.4-9.02 28.05-10.44 57.31-3.17z" data-name="&lt;Group&gt;" opacity=".13"/><path d="M185.29 108.2c-23.74-14.55-46.7-20.43-51.29-13.13s11 25 34.71 39.55S220 147.75 220 147.75s-11-25-34.71-39.55z" fill="#4fc6b7" data-name="&lt;Group&gt;"/><path d="M185.29 108.2C209 122.75 220 147.75 220 147.75l-86-52.68c4.59-7.3 27.55-1.42 51.29 13.13z" data-name="&lt;Group&gt;" opacity=".13"/><path d="M193.69 167.59c-17.54-21.63-37.22-34.83-44-29.48s2 27.22 19.53 48.86 44 29.48 44 29.48-1.99-27.23-19.53-48.86z" fill="#4fc6b7" data-name="&lt;Group&gt;"/><path d="M193.69 167.59c17.54 21.63 19.53 48.86 19.53 48.86l-63.5-78.34c6.75-5.36 26.43 7.89 43.97 29.48z" data-name="&lt;Group&gt;" opacity=".13"/><path d="M166.32 227.39c-.31-23.74-6.51-43-13.85-43s-13 19.27-12.73 43a94.2 94.2 0 0 0 11.2 42.22s15.69-18.48 15.38-42.22z" fill="#4fc6b7" data-name="&lt;Group&gt;"/><path d="M166.32 227.39c.31 23.74-15.39 42.27-15.39 42.27l1.54-85.23c7.34 0 13.53 19.23 13.85 42.96z" data-name="&lt;Group&gt;" opacity=".13"/><path d="M76.48 109.55C74.27 77.62 80.15 50 89.61 47.83s18.93 22 21.14 53.9-13.13 61.72-13.13 61.72-18.93-21.97-21.14-53.9z" fill="#4fc6b7" data-name="&lt;Group&gt;"/><path d="M76.48 109.55c2.21 31.93 21.14 53.9 21.14 53.9l-8-115.62C80.15 50 74.27 77.62 76.48 109.55z" data-name="&lt;Group&gt;" opacity=".13"/><path d="M109.57 170c4.65-30.5 16.05-55.32 25.46-55.45s13.27 24.49 8.61 55S118.19 225 118.19 225s-13.27-24.53-8.62-55z" fill="#4fc6b7" data-name="&lt;Group&gt;"/><path d="M109.57 170c-4.65 30.5 8.61 55 8.61 55L135 114.51c-9.37.14-20.77 24.96-25.43 55.49z" data-name="&lt;Group&gt;" opacity=".13"/><path d="M-117-63.53a267.37 267.37 0 0 1 27 4.38q13.41 2.81 26.62 6.58a415.26 415.26 0 0 1 51.76 18.5c8.42 3.68 16.75 7.63 24.92 11.92s16.2 8.88 24.07 13.76S52.84 1.81 60.3 7.36s14.61 11.51 21.5 17.79 13.43 13 19.65 20l4.55 5.28 4.4 5.47c1.48 1.81 2.83 3.73 4.26 5.59.7.94 1.42 1.86 2.09 2.82l2 2.9a207 207 0 0 1 14.47 24.1 200.85 200.85 0 0 1 11.15 25.77l.61 1.64.54 1.67 1.06 3.34 1 3.34c.34 1.12.62 2.25.93 3.38.59 2.26 1.24 4.5 1.78 6.76l1.49 6.83c.26 1.13.47 2.28.66 3.43l.59 3.44c.4 2.29.81 4.57 1 6.88l.82 6.9.52 6.92c.07 1.15.19 2.3.21 3.46l.09 3.46c0 2.31.17 4.61.13 6.91-.13 4.61-.11 9.2-.53 13.78a212.54 212.54 0 0 1-3.61 27.16c-.17-18.21-1.27-36.23-4.55-53.76l-1.11-6.57-1.5-6.49c-.26-1.08-.47-2.16-.77-3.23l-.87-3.21-.87-3.2c-.28-1.07-.58-2.13-.93-3.18a231.1 231.1 0 0 0-9.06-24.81 228.51 228.51 0 0 0-26.3-45.37A240.64 240.64 0 0 0 89 56.28q-8.85-9.73-18.62-18.63c-6.45-6-13.26-11.6-20.23-17S36 10 28.65 5.05 13.74-4.58 6.08-9.13-9.4-18-17.33-22.09c-15.85-8.27-32.17-15.76-48.8-22.67S-99.71-58-117-63.53z" fill="#4fc6b7" data-name="oqeQgB.tif"/></g></svg>