<svg xmlns="http://www.w3.org/2000/svg" viewBox="0 0 1920 1033"><title>portfolio-project-header</title><path fill="#5245db" d="M0-22h1920.5v1055.5H0z" data-name="bg"/><g data-name="big leaf"><g data-name="happy crop"><path d="M851.07 1243.58c-14-22.58-150.51-223.88-21.9-408 0 0 32.31-55.38 107.69-80 35.68-11.65 77.05-8.51 110.72 7.74 25.62 12.36 46.69 32.26 62.88 55.45a259 259 0 0 1 26.78 50c33.56 81.71 33.7 186.84 11.3 271.9a241.72 241.72 0 0 1-11.54 34.13c-2.18 5.06-7 18.88-18 28.16-7 5.88-264.78 41.88-264.78 41.88a2.88 2.88 0 0 1-3.15-1.26z" fill="#1c1c1c" stroke="#000" stroke-miterlimit="10" stroke-width="2.89"/><path data-name="ear" d="M837.67 1005.42s-15-16.18-12.54 7.46c0 0 4.82 17.37 20.74 17.37h1.71s-10.58-24.35-9.91-24.83z" fill="#f8e6d3" stroke="#000" stroke-miterlimit="10" stroke-width="2.89"/><path d="M831.4 961s-4.28 112.83 104.82 129.2c17.82 2.67 38.66 2.77 63-.61 0 0 129.52-12.79 116.73-149.56 0 0-38.59 0-57.88-33.74l4.82 18.33s-40.19-11.23-72.36-95.51c0 0-15.44 71.05-67.53 103.06 0 0 1.93-17.2 0-24.91 0 0-26 30.14-51.13 40.64l1-15.72S851.66 954 831.4 961z" fill="#f8e6d3" stroke="#000" stroke-miterlimit="10" stroke-width="2.89"/><path fill="#fff" stroke="#000" stroke-linecap="round" stroke-miterlimit="10" stroke-width="5.79" d="M874.05 963.77l36.65-6.29m119.85-11.46l36.78-5.5"/><ellipse cx="898.5" cy="988.94" rx="24.51" ry="12.55" transform="rotate(-8.68 898.042 988.47)" fill="#fff" stroke="#000" stroke-miterlimit="10" stroke-width="2.89"/><circle cx="898.91" cy="988.88" r="11.14"/><ellipse cx="1051.32" cy="972.93" rx="24.51" ry="12.55" transform="rotate(-8.68 1050.796 972.497)" fill="#fff" stroke="#000" stroke-miterlimit="10" stroke-width="2.89"/><circle cx="1052.26" cy="972.79" r="11.25"/><path fill="none" stroke="#000" stroke-linecap="round" stroke-miterlimit="10" stroke-width="4.34" d="M978.38 1000.02v15.11h7.67m-22.89-325.64s-22.6 25.23-14.39 67c0 0-4.67-18.79-18.59-18.1"/><path d="M965 679.47s-19.14-19.78-7.66-31.21c0 0 14.81-6.21 10.89 31.21zm6.77-.95s1.32-27.49 17.51-26.94c0 0 14.66 6.55-15.3 29.3zm.96 5.86s24.57-12.4 32.07 2c0 0 1.53 16-33 1.12zm-2.9 2.53s17.13 21.55 4.59 31.8c0 0-15.34 4.74-7.8-32.12zm-5.26-.85s-22.7 15.57-32 2.34c0 0-3.64-15.64 32.59-5.52z" fill="#fff" stroke="#231f20" stroke-linecap="round" stroke-miterlimit="10" stroke-width="2.89"/><circle cx="968.9" cy="683.75" r="5.74" fill="#f8daa4" stroke="#231f20" stroke-linecap="round" stroke-miterlimit="10" stroke-width="2.89"/><path d="M964.53 735.6s-12.13-13.6-15.76 20.89" fill="none" stroke="#000" stroke-linecap="round" stroke-miterlimit="10" stroke-width="4.34"/><path data-name="ear" d="M1117.33 970.32s10.46-18.4 13.36 4.24c0 0-.73 17.3-15.62 20.78l-1.6.37s4.61-25.09 3.86-25.39z" fill="#f8e6d3" stroke="#000" stroke-miterlimit="10" stroke-width="2.89"/><ellipse cx="1070.7" cy="1007.57" rx="14.67" ry="7.51" transform="rotate(-8.68 1070.169 1007.099)" fill="#f39c9c"/><ellipse cx="896.68" cy="1028.48" rx="14.67" ry="7.51" transform="rotate(-8.68 896.233 1028.023)" fill="#f39c9c"/></g></g></svg>