<svg xmlns="http://www.w3.org/2000/svg" viewBox="0 0 1920.5 831.5"><title>portfolio-project-header-wide</title><path fill="#5245db" d="M0 0h1920.5v831.5H0z" data-name="bg"/><g data-name="big leaf"><g data-name="happy crop"><path d="M860.42 1025.64c-12.91-20.85-139-206.72-20.22-376.74 0 0 29.83-51.14 99.43-73.86 32.95-10.76 71.15-7.86 102.23 7.14 23.65 11.42 43.11 29.79 58.06 51.2a239.14 239.14 0 0 1 24.73 46.2c31 75.44 31.11 172.51 10.43 251.05a223.18 223.18 0 0 1-10.65 31.5c-2 4.67-6.45 17.43-16.58 26-6.42 5.43-244.48 38.67-244.48 38.67a2.66 2.66 0 0 1-2.95-1.16z" fill="#1c1c1c" stroke="#000" stroke-miterlimit="10" stroke-width="2.67"/><path data-name="ear" d="M848.05 805.74s-13.81-14.94-11.58 6.88c0 0 4.45 16 19.15 16h1.58s-9.78-22.44-9.15-22.88z" fill="#f8e6d3" stroke="#000" stroke-miterlimit="10" stroke-width="2.67"/><path d="M842.26 764.72S838.31 868.9 939 884c16.45 2.47 35.7 2.56 58.21-.57 0 0 119.59-11.81 107.78-138.09 0 0-35.63 0-53.45-31.15l4.45 16.92s-37.11-10.37-66.81-88.19c0 0-14.25 65.6-62.35 95.16 0 0 1.78-15.88 0-23 0 0-24.05 27.83-47.21 37.52l.89-14.52s-19.51 20.15-38.25 26.64z" fill="#f8e6d3" stroke="#000" stroke-miterlimit="10" stroke-width="2.67"/><path fill="#fff" stroke="#000" stroke-linecap="round" stroke-miterlimit="10" stroke-width="5.34" d="M881.64 767.28l33.84-5.81m110.66-10.58l33.96-5.07"/><ellipse cx="904.22" cy="790.52" rx="22.63" ry="11.59" transform="rotate(-8.68 903.748 790.182)" fill="#fff" stroke="#000" stroke-miterlimit="10" stroke-width="2.67"/><circle cx="904.59" cy="790.46" r="10.28"/><ellipse cx="1045.31" cy="775.74" rx="22.63" ry="11.59" transform="rotate(-8.68 1044.75 775.372)" fill="#fff" stroke="#000" stroke-miterlimit="10" stroke-width="2.67"/><circle cx="1046.19" cy="775.61" r="10.39"/><path fill="none" stroke="#000" stroke-linecap="round" stroke-miterlimit="10" stroke-width="4.01" d="M977.97 800.75v13.95h7.08M963.92 514s-20.87 23.3-13.29 61.86c0 0-4.31-17.35-17.17-16.71"/><path d="M965.63 504.78S948 486.52 958.56 476c0 0 13.68-5.73 10.05 28.81zm6.24-.88s1.22-25.39 16.13-24.9c0 0 13.54 6-14.12 27.05zm.89 5.41s22.69-11.45 29.61 1.81c0 0 1.41 14.76-30.5 1zm-2.68 2.34s15.82 19.89 4.24 29.36c0 0-14.17 4.38-7.21-29.65zm-4.86-.78s-21 14.37-29.59 2.16c0 0-3.36-14.44 30.09-5.1z" fill="#fff" stroke="#231f20" stroke-linecap="round" stroke-miterlimit="10" stroke-width="2.67"/><circle cx="969.22" cy="508.73" r="5.3" fill="#f8daa4" stroke="#231f20" stroke-linecap="round" stroke-miterlimit="10" stroke-width="2.67"/><path d="M965.19 556.61s-11.19-12.53-14.56 19.28" fill="none" stroke="#000" stroke-linecap="round" stroke-miterlimit="10" stroke-width="4.01"/><path data-name="ear" d="M1106.27 773.33s9.66-17 12.34 3.92c0 0-.67 16-14.42 19.18l-1.48.35s4.29-23.17 3.56-23.45z" fill="#f8e6d3" stroke="#000" stroke-miterlimit="10" stroke-width="2.67"/><ellipse cx="1063.21" cy="807.72" rx="13.55" ry="6.94" transform="rotate(-8.68 1062.667 807.345)" fill="#f39c9c"/><ellipse cx="902.54" cy="827.03" rx="13.55" ry="6.94" transform="rotate(-8.68 902.037 826.695)" fill="#f39c9c"/></g></g></svg>