<svg xmlns="http://www.w3.org/2000/svg" viewBox="0 0 680.96 121"><title>Artboard 2</title><g id="19825c4d-c9f7-434e-a7cd-d46140e8ce5f" data-name="left bracket"><text transform="translate(0 113.12)" font-size="90.59" fill="#4fc6b7" font-family="HelveticaNeue, Helvetica Neue">&lt;</text></g><g id="dcb556d9-20db-412f-9f81-57a07096f8fe" data-name="right bracket"><text transform="translate(625.72 113.12)" font-size="90.59" fill="#4fc6b7" font-family="HelveticaNeue, Helvetica Neue">&gt;</text></g><g id="b3397e70-8818-4097-b6e0-3456dfdbda90" data-name="text"><text transform="translate(73.63 116.34)" font-size="89" fill="#f0f6e6" font-family="HelveticaNeue-Light, Helvetica Neue">Plant <tspan x="217.6" y="0" letter-spacing="-0.09em">T</tspan><tspan x="258.9" y="0">utorials</tspan></text></g><g id="cb34db71-a309-413c-a3f3-2ffd98ce7439" data-name="small leaf"><path d="M452,10.34s15.36,3.82,23.49,15.85,10.78,24.43,5.93,27.71S466,50.08,457.91,38.05,452,10.34,452,10.34Z" fill="#4fc6b7"/><g id="613dca46-d0e9-4a15-b9d0-18ad3cead2b4" data-name="&lt;Group&gt;" opacity="0.13"><path d="M475.77,25.71C467.54,13.53,452,9.65,452,9.65l29.79,44.12C486.68,50.46,484,37.89,475.77,25.71Z"/></g></g><g id="c094ea2a-52cc-4a06-8132-61f86d537268" data-name="big leaf"><path d="M522.44,41.13c-11.16,16.53-25.62,26.29-32.28,21.79s-3-21.55,8.15-38.08S530.59,3.05,530.59,3.05,533.6,24.6,522.44,41.13Z" fill="#4fc6b7"/><g id="552e77d4-a80e-4f82-996d-ecda37916dd8" data-name="&lt;Group&gt;" opacity="0.13"><path d="M521.55,41.42c11-16.32,8-37.6,8-37.6L489.68,62.94C496.26,67.38,510.53,57.75,521.55,41.42Z"/></g></g></svg>