<svg xmlns="http://www.w3.org/2000/svg" viewBox="0 0 1366 768"><title>Artboard 1</title><g id="92d3df5b-4e7b-4b28-95f4-17598a013ecd" data-name="Layer 1"><g id="f7c1cf79-65d4-4fe1-8814-ac04237989c3" data-name="&lt;Group&gt;"><circle cx="501.53" cy="547.23" r="110.76" fill="#6179cd"/></g><g id="b829a99e-0f05-4689-9121-073d7e3c02ad" data-name="&lt;Group&gt;" opacity="0.21"><path d="M551.29,498,468.36,614.27l41.17,43.42A110.79,110.79,0,0,0,611.4,561.38Z"/></g><g id="41898c98-2310-440e-a9af-2f06d220e3b1" data-name="&lt;Group&gt;"><g id="9297f829-099f-4917-a558-be0b982c99a7" data-name="&lt;Group&gt;"><ellipse cx="528.22" cy="532.4" rx="41.54" ry="16.74" transform="translate(-208.62 672.21) rotate(-55.97)" fill="#3ebdb2"/></g><g id="fce5ff7b-f351-482f-8b9b-8fe8a03ef109" data-name="&lt;Group&gt;"><ellipse cx="474.06" cy="532.4" rx="16.74" ry="41.54" transform="translate(-216.76 356.48) rotate(-34.03)" fill="#3ebdb2"/></g><g id="ef5fdd1c-9a31-4d97-898b-777eb92b3a50" data-name="&lt;Group&gt;"><path d="M542.09,541.77c12.84-19,9.37-43.79,9.37-43.79L505,566.83C512.63,572,529.25,560.79,542.09,541.77Z" fill="#34a799"/></g><g id="621d5a04-566c-452d-9ab2-3a783f1e0f0b" data-name="&lt;Group&gt;"><path d="M487.94,523C475.1,504,450.82,498,450.82,498l46.49,68.85C505,561.66,500.78,542,487.94,523Z" fill="#34a799"/></g><g id="d192e0de-9a3a-4971-a600-98116dd4e235" data-name="&lt;Group&gt;"><ellipse cx="500.57" cy="522.33" rx="16.74" ry="41.54" fill="#3ebdb2"/></g><g id="2ae7d9f7-fdc2-4088-a248-d591dd64f2b3" data-name="&lt;Group&gt;"><path d="M517.31,522.33c0-22.94-16.74-41.54-16.74-41.54v83.08C509.82,563.87,517.31,545.27,517.31,522.33Z" fill="#34a799"/></g></g><g id="68809623-7657-4d68-941f-ac1281789fe5" data-name="&lt;Group&gt;"><g id="ccc00a1b-cf10-4883-93cd-82da591d3e84" data-name="&lt;Group&gt;"><rect x="450.39" y="552.46" width="101.5" height="11.33" fill="#f0f6e6"/></g><g id="20333694-436b-4401-8970-16a2f7f456ea" data-name="&lt;Group&gt;"><polygon points="534.71 614.27 468.36 614.27 459.05 561.09 544.02 561.09 534.71 614.27" fill="#f0f6e6"/></g><g id="97657b28-896e-4a32-b20e-2f09002c06c6" data-name="&lt;Group&gt;"><polygon points="551.89 563.79 541.68 570.14 461.39 570.14 450.39 563.79 551.89 563.79" fill="#d5dacc"/></g></g><g id="4d731b2a-5c4a-4011-bb3b-9cedc3af9cb0" data-name="&lt;Group&gt;"><polygon points="551.89 563.79 541.68 570.14 461.39 570.14 450.39 563.79 551.89 563.79" fill="#d5dacc"/></g><g id="7148db26-7e74-4d80-b9cb-6335e93504eb" data-name="&lt;Group&gt;" opacity="0.48"><polygon points="534.71 614.27 543.54 563.79 551.89 563.79 551.89 552.46 500.57 552.46 500.57 614.27 534.71 614.27" fill="#d5dacc"/></g><g id="8f2db138-03e7-45c1-89c9-6d90eea75d76" data-name="&lt;Group&gt;"><circle cx="221.53" cy="547.23" r="110.76" fill="#6179cd"/></g><g id="1eadf98e-94e7-4ad9-93bf-6dea02b0179c" data-name="&lt;Group&gt;" opacity="0.21"><path d="M271.29,498,188.36,614.27l41.17,43.42A110.79,110.79,0,0,0,331.4,561.38Z"/></g><g id="9267d45f-ae36-42c7-8229-cfa1df283a9b" data-name="&lt;Group&gt;"><circle cx="821.07" cy="547.23" r="110.76" fill="#6179cd"/></g><g id="ff48b397-1e6d-469d-9d16-83fcc69569db" data-name="&lt;Group&gt;" opacity="0.21"><path d="M787.38,604.35l51.83,52.14A110.86,110.86,0,0,0,929.69,569l-80.81-85Z"/></g><g id="e7ac3828-6a9a-4a16-9c63-2a7219adb37f" data-name="&lt;Group&gt;"><rect x="815.02" y="475.26" width="36.83" height="96.45" rx="17.4" ry="17.4" fill="#3ebdb2"/></g><g id="475c0c60-9e4f-4fd8-abfc-c799c952eee3" data-name="&lt;Group&gt;"><path d="M851.85,553.3V493.68a18.47,18.47,0,0,0-18.42-18.42v96.45A18.47,18.47,0,0,0,851.85,553.3Z" fill="#34a799"/></g><g id="1eed35a7-fdf6-4ea7-8301-c248cd7e98b8" data-name="&lt;Group&gt;"><path d="M812.9,558.55v-33A13.64,13.64,0,0,0,799.3,512h0a13.64,13.64,0,0,0-13.6,13.6v33Z" fill="#3ebdb2"/></g><g id="4ae99fb1-f49c-4d8f-bd74-976e911a1644" data-name="&lt;Group&gt;"><path d="M812.9,558.55v-33A13.64,13.64,0,0,0,799.3,512v46.6Z" fill="#34a799"/></g><g id="3749e8ea-ff1c-4453-9d95-c15ea301a35a" data-name="&lt;Group&gt;"><g id="d840257c-2fd0-45a6-b0bf-0f8c5ec962bd" data-name="&lt;Group&gt;"><polygon points="850.18 604.36 787.38 604.36 778.57 557.09 859 557.09 850.18 604.36" fill="#a7acd9"/></g><g id="5d252de9-40d3-4981-aced-c21a9b4299b3" data-name="&lt;Group&gt;"><polygon points="866.45 559.49 857.79 565.13 779.78 565.13 770.37 559.49 866.45 559.49" fill="#7d89bc"/></g><g id="6dd53bd1-a109-4744-8e0c-ee9a6338c462" data-name="&lt;Group&gt;"><rect x="770.37" y="549.42" width="96.08" height="10.07" fill="#a7acd9"/></g><polygon points="819 549.42 819 604.36 850.18 604.36 857.5 565.13 857.79 565.13 866.45 559.49 866.45 549.42 819 549.42" opacity="0.11"/></g><g id="4b49c2b6-2e17-4419-b163-8738bd8116b2" data-name="&lt;Group&gt;"><g id="911d3377-6077-48ac-99f0-71fa227d543a" data-name="&lt;Group&gt;"><ellipse cx="248.22" cy="532.4" rx="41.54" ry="16.74" transform="translate(-331.92 440.16) rotate(-55.97)" fill="#3ebdb2"/></g><g id="95fc0822-c6fc-4eb7-9772-af7f77409c1a" data-name="&lt;Group&gt;"><ellipse cx="194.06" cy="532.4" rx="16.74" ry="41.54" transform="translate(-264.71 199.78) rotate(-34.03)" fill="#3ebdb2"/></g><g id="5fb1a8f2-d259-4563-bb17-f55213d643db" data-name="&lt;Group&gt;"><path d="M262.09,541.77c12.84-19,9.37-43.79,9.37-43.79L225,566.83C232.63,572,249.25,560.79,262.09,541.77Z" fill="#34a799"/></g><g id="36f4e49d-695a-4410-b066-5e233e874026" data-name="&lt;Group&gt;"><path d="M207.94,523C195.1,504,170.82,498,170.82,498l46.49,68.85C225,561.66,220.78,542,207.94,523Z" fill="#34a799"/></g><g id="e31bbb9c-a56f-45a3-92d5-861902925d9b" data-name="&lt;Group&gt;"><ellipse cx="220.57" cy="522.33" rx="16.74" ry="41.54" fill="#3ebdb2"/></g><g id="32cacf89-dabf-483d-9f65-a14daa2eef81" data-name="&lt;Group&gt;"><path d="M237.31,522.33c0-22.94-16.74-41.54-16.74-41.54v83.08C229.82,563.87,237.31,545.27,237.31,522.33Z" fill="#34a799"/></g></g><g id="c3b799f6-2d6c-4351-b393-0b474328a4be" data-name="&lt;Group&gt;"><g id="dd09c04a-7515-47c7-a8e2-7e38df45b799" data-name="&lt;Group&gt;"><polygon points="255.22 614 186.59 614 176.96 560.66 264.86 560.66 255.22 614" fill="#a7acd9"/></g><g id="62395e48-3db7-424d-8a23-8f6b49282d40" data-name="&lt;Group&gt;"><polygon points="273 563.36 263.53 569.73 178.29 569.73 168 563.36 273 563.36" fill="#7d89bc"/></g><g id="e2f96712-857b-4138-b335-9aa54c196370" data-name="&lt;Group&gt;"><rect x="168" y="552" width="105" height="11.36" fill="#a7acd9"/></g><polygon points="221.15 552 221.15 614 255.22 614 263.22 569.73 263.53 569.73 273 563.36 273 552 221.15 552" opacity="0.11"/></g><g id="5ea15330-482b-4132-a853-2e1896635e58" data-name="&lt;Group&gt;"><circle cx="221.53" cy="309.23" r="110.76" fill="#6179cd"/></g><g id="db0771ee-9c9d-400b-afc8-4ddbfc9cdc54" data-name="&lt;Group&gt;" opacity="0.21"><path d="M271.29,260,188.36,376.27l41.17,43.42A110.79,110.79,0,0,0,331.4,323.38Z"/></g><g id="a5999999-1196-4aeb-901a-5872fdc7fa18" data-name="&lt;Group&gt;"><g id="dbba6cc2-9d48-4b3f-987a-f248a193fe86" data-name="&lt;Group&gt;"><ellipse cx="248.22" cy="294.4" rx="41.54" ry="16.74" transform="translate(-134.68 335.35) rotate(-55.97)" fill="#4fc6b7"/></g><g id="3c0b0182-97f0-4fa7-a51d-0d32ce14ad84" data-name="&lt;Group&gt;"><ellipse cx="194.06" cy="294.4" rx="16.74" ry="41.54" transform="translate(-131.52 159.02) rotate(-34.03)" fill="#4fc6b7"/></g><g id="618565d6-8ead-4f60-8ed9-100a5e8b690e" data-name="&lt;Group&gt;" opacity="0.13"><path d="M262.09,303.77c12.84-19,9.37-43.79,9.37-43.79L225,328.83C232.63,334,249.25,322.79,262.09,303.77Z"/></g><g id="4e6e5ae1-90a8-4b7d-b174-9dec5ecb5c36" data-name="&lt;Group&gt;" opacity="0.13"><path d="M207.94,285C195.1,266,170.82,260,170.82,260l46.49,68.85C225,323.66,220.78,304,207.94,285Z"/></g><g id="c86a199d-ce70-4d14-b963-b71eac5e0840" data-name="&lt;Group&gt;"><ellipse cx="220.57" cy="284.33" rx="16.74" ry="41.54" fill="#4fc6b7"/></g><g id="1640564b-eeee-4f4a-bbbe-3c70ae041191" data-name="&lt;Group&gt;" opacity="0.13"><path d="M237.31,284.33c0-22.94-16.74-41.54-16.74-41.54v83.08C229.82,325.87,237.31,307.27,237.31,284.33Z"/></g></g><g id="0520506d-535b-4243-9c99-5721b6f4dae2" data-name="&lt;Group&gt;"><g id="bcde26b8-1093-4ef6-be79-0e197457887b" data-name="&lt;Group&gt;"><polygon points="255.22 376 186.59 376 176.96 322.66 264.86 322.66 255.22 376" fill="#a7acd9"/></g><g id="33f2c02c-32a5-4d3c-80d8-9bcf7455ea64" data-name="&lt;Group&gt;"><polygon points="273 325.36 263.53 331.73 178.29 331.73 168 325.36 273 325.36" fill="#7d89bc"/></g><g id="fd86156f-bc14-417e-9c92-42c4dd692721" data-name="&lt;Group&gt;"><rect x="168" y="314" width="105" height="11.36" fill="#a7acd9"/></g><polygon points="221.15 314 221.15 376 255.22 376 263.22 331.73 263.53 331.73 273 325.36 273 314 221.15 314" opacity="0.11"/></g><g id="d026e9df-c1dd-42a2-9903-0d2d2630e633" data-name="&lt;Group&gt;"><circle cx="508.53" cy="309.23" r="110.76" fill="#6179cd"/></g><g id="62b24251-ff2f-45c6-9561-b9852c8f566d" data-name="&lt;Group&gt;" opacity="0.21"><path d="M558.29,260,475.36,376.27l41.17,43.42A110.79,110.79,0,0,0,618.4,323.38Z"/></g><g id="67868fd5-089b-4313-88ce-460b34d2740a" data-name="&lt;Group&gt;"><g id="aafea014-4730-49ea-98d5-f30cd2fa0e43" data-name="&lt;Group&gt;"><ellipse cx="535.22" cy="294.4" rx="41.54" ry="16.74" transform="translate(-8.29 573.2) rotate(-55.97)" fill="#4fc6b7"/></g><g id="87f36b37-499c-4cc3-81e2-5498173eee4c" data-name="&lt;Group&gt;"><ellipse cx="481.06" cy="294.4" rx="16.74" ry="41.54" transform="translate(-82.37 319.64) rotate(-34.03)" fill="#4fc6b7"/></g><g id="6c446716-ecee-4807-9234-72bccb6d4be1" data-name="&lt;Group&gt;" opacity="0.13"><path d="M549.09,303.77c12.84-19,9.37-43.79,9.37-43.79L512,328.83C519.63,334,536.25,322.79,549.09,303.77Z"/></g><g id="92c33df4-de7f-4635-aac2-24546416acf7" data-name="&lt;Group&gt;" opacity="0.13"><path d="M494.94,285C482.1,266,457.82,260,457.82,260l46.49,68.85C512,323.66,507.78,304,494.94,285Z"/></g><g id="6ba58d8a-9864-4040-a48f-2d55916aa2d9" data-name="&lt;Group&gt;"><ellipse cx="507.57" cy="284.33" rx="16.74" ry="41.54" fill="#4fc6b7"/></g><g id="a0b345c9-a9b1-4937-a62f-b4897fc08c1a" data-name="&lt;Group&gt;" opacity="0.13"><path d="M524.31,284.33c0-22.94-16.74-41.54-16.74-41.54v83.08C516.82,325.87,524.31,307.27,524.31,284.33Z"/></g></g><g id="426f5a98-3c40-481b-bce4-c77d0f33cf6d" data-name="&lt;Group&gt;"><g id="369a5818-5c80-4d23-80c6-ac1bdc406efa" data-name="&lt;Group&gt;"><polygon points="542.23 376 473.59 376 463.96 322.66 551.86 322.66 542.23 376" fill="#e3b9bc"/></g><g id="c7ffc71c-a670-4db1-a17b-2cf304e03bec" data-name="&lt;Group&gt;"><polygon points="560 325.36 550.53 331.73 465.29 331.73 455 325.36 560 325.36" fill="#d8a7ad"/></g><g id="69520b68-6d74-4d24-a738-1fcbac98f07d" data-name="&lt;Group&gt;"><rect x="455" y="314" width="105" height="11.36" fill="#e3b9bc"/></g><polygon points="508.14 314 508.14 376 542.23 376 550.22 331.73 550.53 331.73 560 325.36 560 314 508.14 314" opacity="0.11"/></g><g id="292c3c5b-ef55-4a5d-8c3d-f5de84f58859" data-name="&lt;Group&gt;"><g id="811b1d81-dafa-4c8e-9048-5c273c4a53a4" data-name="&lt;Group&gt;"><rect x="840.19" y="501.16" width="4.85" height="1" transform="translate(-121.07 683.24) rotate(-41.44)" fill="#131d32"/></g><g id="0c85d958-da46-46d4-8e7a-4355ae9df9da" data-name="&lt;Group&gt;"><rect x="822.59" y="522.99" width="4.85" height="1" transform="translate(-139.92 677.05) rotate(-41.44)" fill="#131d32"/></g><g id="2f8ace67-6c1a-4c0e-92f6-4e49e724ecd9" data-name="&lt;Group&gt;"><rect x="822.77" y="540.64" width="4.85" height="1" transform="translate(-151.56 681.59) rotate(-41.44)" fill="#131d32"/></g><g id="85748d57-aabb-4536-97d2-86dc8370405f" data-name="&lt;Group&gt;"><rect x="791.33" y="523.59" width="4.85" height="1" transform="translate(-148.15 656.52) rotate(-41.44)" fill="#131d32"/></g><g id="3b575779-4dbe-4597-91d0-3ad3393283c1" data-name="&lt;Group&gt;"><rect x="823.69" y="505.24" width="1" height="4.85" transform="translate(-101.71 790.02) rotate(-48.59)" fill="#131d32"/></g><g id="b16143b2-4cf2-4299-8cd2-35de56c16487" data-name="&lt;Group&gt;"><rect x="843.49" y="532.9" width="1" height="4.85" transform="translate(-115.75 814.23) rotate(-48.59)" fill="#131d32"/></g><g id="b3a1e696-890a-40ba-b0df-8dc7d0fd63fe" data-name="&lt;Group&gt;"><rect x="842.67" y="517.6" width="1" height="4.85" transform="translate(-104.57 808.37) rotate(-48.59)" fill="#131d32"/></g><g id="d4e3aba7-57bf-448e-a751-210608bf1db3" data-name="&lt;Group&gt;"><rect x="841.67" y="484.58" width="1" height="4.85" transform="translate(-80.13 796.51) rotate(-48.59)" fill="#131d32"/></g><g id="fa6d6006-727d-4722-8746-2a1adf0a7fc8" data-name="&lt;Group&gt;"><rect x="793.26" y="535.51" width="1" height="4.85" transform="translate(-134.71 777.44) rotate(-48.59)" fill="#131d32"/></g><g id="8471fe0d-c3d8-494d-82df-49edb1533ca0" data-name="&lt;Group&gt;"><rect x="803.68" y="530.46" width="4.85" height="1" transform="translate(-149.61 666.41) rotate(-41.44)" fill="#131d32"/></g><g id="f8ae99de-ca4b-4db4-a769-4d3bbd868c58" data-name="&lt;Group&gt;"><rect x="803.68" y="542.85" width="4.85" height="1" transform="translate(-157.8 669.51) rotate(-41.44)" fill="#131d32"/></g><g id="05e629bf-ce24-4cd3-a995-7dff0185fac3" data-name="&lt;Group&gt;"><rect x="822.69" y="491.16" width="4.85" height="1" transform="translate(-118.83 669.16) rotate(-41.44)" fill="#131d32"/></g></g><rect x="1115" y="223" width="100" height="68" fill="#6179cd"/><rect x="1116" y="339" width="100" height="68" fill="#e3b9bc"/><rect x="1116" y="454" width="100" height="52" fill="#93c6d6"/><rect x="1115" y="112" width="100" height="52" fill="#a7acd9"/><rect x="1115" y="189" width="100" height="34" fill="#7289da"/><g id="1e29d2db-77ec-43f4-99f0-ce6236adb203" data-name="&lt;Group&gt;"><circle cx="811.07" cy="270.23" r="110.76" fill="#6179cd"/></g><g id="881534a0-4027-48f7-aea1-584097491906" data-name="&lt;Group&gt;" opacity="0.21"><path d="M777.38,327.35l51.83,52.14A110.86,110.86,0,0,0,919.69,292l-80.81-85Z"/></g><g id="9862aa45-ff7c-4caf-a527-13da563f5acc" data-name="&lt;Group&gt;"><rect x="805.02" y="198.26" width="36.83" height="96.45" rx="17.4" ry="17.4" fill="#8dd6d8"/></g><g id="e99af83b-b137-4759-8950-f8c6d214faee" data-name="&lt;Group&gt;" opacity="0.16"><path d="M841.85,276.3V216.68a18.47,18.47,0,0,0-18.42-18.42v96.45A18.47,18.47,0,0,0,841.85,276.3Z"/></g><g id="79967e1c-1fac-405f-99ea-a4a11bbe99d4" data-name="&lt;Group&gt;"><path d="M802.9,281.55v-33A13.64,13.64,0,0,0,789.3,235h0a13.64,13.64,0,0,0-13.6,13.6v33Z" fill="#8dd6d8"/></g><g id="4c09c6fc-1530-490c-bcfb-9932c0c0d31b" data-name="&lt;Group&gt;" opacity="0.16"><path d="M802.9,281.55v-33A13.64,13.64,0,0,0,789.3,235v46.6Z"/></g><g id="aec2d8b6-2c18-4aee-87a7-bd0b6f3e54d6" data-name="&lt;Group&gt;"><g id="4c7f4e96-56d8-4535-95c1-64f9c4f04082" data-name="&lt;Group&gt;"><polygon points="840.18 327.36 777.38 327.36 768.57 280.09 849 280.09 840.18 327.36" fill="#e3b9bc"/></g><g id="a42da008-679c-4496-b159-5ab09d360aad" data-name="&lt;Group&gt;"><polygon points="856.45 282.49 847.79 288.13 769.78 288.13 760.37 282.49 856.45 282.49" fill="#d8a7ad"/></g><g id="890ea598-330a-4686-917b-f7c872efd11b" data-name="&lt;Group&gt;"><rect x="760.37" y="272.42" width="96.08" height="10.07" fill="#e3b9bc"/></g><polygon points="809 272.42 809 327.36 840.18 327.36 847.5 288.13 847.79 288.13 856.45 282.49 856.45 272.42 809 272.42" opacity="0.11"/></g><g id="d6ae098f-9573-4879-ae88-0294a1833255" data-name="&lt;Group&gt;"><g id="70f066bd-d504-4cdd-9de4-592b090433f4" data-name="&lt;Group&gt;"><rect x="830.19" y="224.16" width="4.85" height="1" transform="translate(59.75 607.28) rotate(-41.44)" fill="#131d32"/></g><g id="adcffa37-33c2-475f-af70-6cc023e55bdd" data-name="&lt;Group&gt;"><rect x="812.59" y="245.99" width="4.85" height="1" transform="translate(40.89 601.09) rotate(-41.44)" fill="#131d32"/></g><g id="99879f5f-3e49-4b75-b921-950a5fe4a261" data-name="&lt;Group&gt;"><rect x="812.77" y="263.64" width="4.85" height="1" transform="translate(29.26 605.63) rotate(-41.44)" fill="#131d32"/></g><g id="2540bfce-bfd6-4a28-a896-f2251a91a0e8" data-name="&lt;Group&gt;"><rect x="781.33" y="246.59" width="4.85" height="1" transform="translate(32.67 580.56) rotate(-41.44)" fill="#131d32"/></g><g id="17ec6e09-31ff-4d3e-a922-a31b7208c91e" data-name="&lt;Group&gt;"><rect x="813.69" y="228.24" width="1" height="4.85" transform="translate(102.66 688.74) rotate(-48.59)" fill="#131d32"/></g><g id="ea9f749b-8a01-4cee-b8bc-068701abe033" data-name="&lt;Group&gt;"><rect x="833.49" y="255.9" width="1" height="4.85" transform="translate(88.61 712.95) rotate(-48.59)" fill="#131d32"/></g><g id="a74cdd2a-e396-4387-89e2-2642e1ae1f0d" data-name="&lt;Group&gt;"><rect x="832.67" y="240.6" width="1" height="4.85" transform="translate(99.78 707.1) rotate(-48.59)" fill="#131d32"/></g><g id="8b69f4d3-34fa-463f-b3ba-cb537a47b93f" data-name="&lt;Group&gt;"><rect x="831.67" y="207.58" width="1" height="4.85" transform="translate(124.24 695.23) rotate(-48.59)" fill="#131d32"/></g><g id="982dd5ac-d361-4c99-8150-e93fc664eb8e" data-name="&lt;Group&gt;"><rect x="783.26" y="258.51" width="1" height="4.85" transform="translate(69.65 676.16) rotate(-48.59)" fill="#131d32"/></g><g id="44426c94-fc38-4f4a-986b-ed303c776b47" data-name="&lt;Group&gt;"><rect x="793.68" y="253.46" width="4.85" height="1" transform="translate(31.21 590.45) rotate(-41.44)" fill="#131d32"/></g><g id="9afe0f5c-2ae3-4d35-9056-69364d5ed48d" data-name="&lt;Group&gt;"><rect x="793.68" y="265.85" width="4.85" height="1" transform="translate(23.02 593.55) rotate(-41.44)" fill="#131d32"/></g><g id="4460ea21-4965-437c-8b8e-ea80c8a0c0d4" data-name="&lt;Group&gt;"><rect x="812.69" y="214.16" width="4.85" height="1" transform="translate(61.99 593.19) rotate(-41.44)" fill="#131d32"/></g></g></g></svg>