<svg xmlns="http://www.w3.org/2000/svg" viewBox="0 0 190.71 183.4"><title>cat</title><g id="cabab734-5ebe-4ce3-8ca8-a349006cb4c2" data-name="Layer 2"><g id="7c0a7047-24e3-47c0-82ad-35beb2e2de74" data-name="bubble"><path d="M153.45,132l6.45.38s2.42.8,6.43-3.65c0,0,7.62-8.48,16.49-6.5,0,0,9.68,4,6.09,13.67,0,0-6.4,13.31-20.5,13,0,0-13.28,2.46-21.36-4.35" fill="#ffefde" stroke="#3f3f3f" stroke-miterlimit="10" stroke-width="2"/><path d="M155.35,98.57l2-.41c8-2.44,3.57-14.51,3.57-14.51l-15-22.9L19.07,56.36" fill="#ffefde" stroke="#3f3f3f" stroke-miterlimit="10" stroke-width="2"/><path d="M155.35,98.57,7.54,96.27c-6.45-1.19-6.48-10-6.48-10-1.24-9.26,18-29.87,18-29.87" fill="#ffefde" stroke="#3f3f3f" stroke-miterlimit="10" stroke-width="2"/><path d="M138.73,69.63,143.95,64c15.65-15.36-7-45.08-7-45.08,1.2-2,.37-8.06.37-8.06-2-6-5.65-3.2-5.65-3.2l-7.23,3.65C83.71-1.46,47.9,7.93,47.9,7.93c-4.82,2-6.45-2.39-6.45-2.39l-3.64-4C33-.48,33,3.95,33,3.95l-.36,11.28C17,32.88,15.18,44.15,17.45,51.53c1.47,4.78,5.67,8.84,5.67,8.84" fill="#ffefde" stroke="#3f3f3f" stroke-miterlimit="10" stroke-width="2"/><path d="M148,80.87s11.73,13.25,7.79,40.25c0,0-3.51,32.23-33.26,46.83L119,177.23s-2.79,8.07-8,4.06c0,0-3.65-6.83-4.06-10.46,0,0-22.12,8.54-43.09.15,0,0-4.81,7.67-7.62,8.89,0,0-7.23,4.05-8.06-2.79L46,165S15.38,150.21,9.23,120c0,0-5.73-27.37,5.87-47.54" fill="#ffefde" stroke="#3f3f3f" stroke-miterlimit="10" stroke-width="2"/><circle cx="50" cy="30.34" r="2.42" transform="translate(-0.11 0.18) rotate(-0.2)" fill="#3f3f3f"/><circle cx="115.52" cy="33.06" r="2.42" transform="translate(-0.12 0.41) rotate(-0.21)" fill="#3f3f3f"/><path d="M44.4,41.77l72.49,1a17.88,17.88,0,0,1-2.22,7.07C108,62.56,89.54,67.59,76.25,65.46,62.56,63.26,47.65,56.7,44.4,41.77Z" fill="#3f3f3f" stroke="#3f3f3f" stroke-miterlimit="10" stroke-width="2"/><path d="M67.16,63.57s5.21-7.27,16.91-2.48c0,0,5.36-4.58,14.24,1.83C98.3,62.92,86.11,69.14,67.16,63.57Z" fill="#edb9b9" stroke="#3f3f3f" stroke-miterlimit="10" stroke-width="0.5"/><ellipse cx="131.42" cy="52.6" rx="5.1" ry="2.68" transform="translate(-0.19 0.47) rotate(-0.2)" fill="#edb9b9" stroke="#3f3f3f" stroke-miterlimit="10"/><ellipse cx="32.33" cy="47.58" rx="5.1" ry="2.68" transform="matrix(1, 0, 0, 1, -0.16, 0.11)" fill="#edb9b9" stroke="#3f3f3f" stroke-miterlimit="10"/><line x1="77.38" y1="143.95" x2="85.87" y2="153.18" fill="none" stroke="#3f3f3f" stroke-miterlimit="10"/><line x1="86.64" y1="143.91" x2="77.41" y2="152.81" fill="none" stroke="#3f3f3f" stroke-miterlimit="10"/></g></g></svg>