<svg xmlns="http://www.w3.org/2000/svg" viewBox="0 0 1156.64 663.04"><title>confetti-green</title><g id="69343227-ef98-4903-b82d-2f8fc306819e" data-name="Layer 2"><g id="fe2371ce-1c4c-4d5c-8dc9-d16718432da5" data-name="confetti-green"><rect x="951.14" y="86.42" width="7.37" height="15.94" transform="translate(193.14 677.86) rotate(-43.1)" fill="none"/><rect x="952.51" y="87.19" width="4.62" height="14.39" transform="matrix(0.65, -0.76, 0.76, 0.65, 265.79, 762.09)" fill="#caefc5" stroke="#3f3f3f" stroke-miterlimit="10"/><rect x="905.83" y="272.3" width="15.94" height="7.37" transform="matrix(0.93, -0.38, 0.38, 0.93, -36.48, 366.32)" fill="none"/><rect x="911.49" y="268.79" width="4.62" height="14.39" transform="translate(1113.5 1209.43) rotate(-118.88)" fill="#caefc5" stroke="#3f3f3f" stroke-miterlimit="10"/><rect x="1098.33" y="373.84" width="7.37" height="15.94" transform="translate(459.04 1354.86) rotate(-75.65)" fill="none"/><rect x="1099.71" y="374.62" width="4.62" height="14.39" transform="translate(575.97 1422.73) rotate(-82.3)" fill="#caefc5" stroke="#3f3f3f" stroke-miterlimit="10"/><rect x="814.14" y="530.09" width="15.94" height="7.37" transform="translate(94.28 1190.32) rotate(-75.05)" fill="none"/><rect x="819.8" y="526.58" width="4.62" height="14.39" transform="translate(1558.47 1180.73) rotate(-171.69)" fill="#caefc5" stroke="#3f3f3f" stroke-miterlimit="10"/><rect x="278.45" y="504.9" width="15.94" height="7.37" transform="translate(-296.54 537.83) rotate(-63.49)" fill="none"/><rect x="284.11" y="501.39" width="4.62" height="14.39" transform="translate(382.93 1084.25) rotate(-160.13)" fill="#caefc5" stroke="#3f3f3f" stroke-miterlimit="10"/><rect x="210.34" y="113.71" width="7.37" height="15.94" transform="translate(-28.83 162.08) rotate(-39.06)" fill="none"/><rect x="211.72" y="114.48" width="4.62" height="14.39" transform="translate(-22.53 189.92) rotate(-45.71)" fill="#caefc5" stroke="#3f3f3f" stroke-miterlimit="10"/><rect x="17.84" y="179.8" width="15.94" height="7.37" transform="translate(-107.19 54.48) rotate(-37.87)" fill="none"/><rect x="23.5" y="176.29" width="4.62" height="14.39" transform="translate(-86.94 330.53) rotate(-134.51)" fill="#caefc5" stroke="#3f3f3f" stroke-miterlimit="10"/><rect x="179.51" y="298.61" width="15.94" height="7.37" transform="translate(-54.63 41.69) rotate(-11.09)" fill="none"/><rect x="185.17" y="295.1" width="4.62" height="14.39" transform="translate(-43.35 572.94) rotate(-107.73)" fill="#caefc5" stroke="#3f3f3f" stroke-miterlimit="10"/><rect x="46.26" y="431.18" width="7.37" height="15.94" transform="translate(-278.3 143.17) rotate(-41.47)" fill="none"/><rect x="47.63" y="431.95" width="4.62" height="14.39" transform="translate(-310.35 183.14) rotate(-48.12)" fill="#caefc5" stroke="#3f3f3f" stroke-miterlimit="10"/><rect x="519.32" y="650.88" width="15.94" height="7.37" transform="translate(-313.11 639.97) rotate(-50.15)" fill="none"/><rect x="524.98" y="647.37" width="4.62" height="14.39" transform="translate(610.05 1491.01) rotate(-146.8)" fill="#caefc5" stroke="#3f3f3f" stroke-miterlimit="10"/><rect x="724.32" y="384.37" width="7.37" height="15.94" transform="translate(-46.7 681.76) rotate(-48.81)" fill="none"/><rect x="725.69" y="385.15" width="4.62" height="14.39" transform="translate(-8 769.47) rotate(-55.45)" fill="#caefc5" stroke="#3f3f3f" stroke-miterlimit="10"/><rect x="1094.91" y="601.75" width="15.94" height="7.37" transform="translate(-153.6 540.89) rotate(-25.82)" fill="none"/><rect x="1100.57" y="598.24" width="4.62" height="14.39" transform="translate(1021.58 -650.07) rotate(57.53)" fill="#caefc5" stroke="#3f3f3f" stroke-miterlimit="10"/><rect x="468.54" y="47.99" width="7.37" height="15.94" transform="translate(372.7 520.96) rotate(-84.68)" fill="none"/><rect x="469.91" y="48.76" width="4.62" height="14.39" transform="translate(427.19 529.35) rotate(-91.32)" fill="#caefc5" stroke="#3f3f3f" stroke-miterlimit="10"/><rect x="3.36" y="589.22" width="15.94" height="7.37" transform="translate(-369.66 138.47) rotate(-38.88)" fill="none"/><rect x="9.02" y="585.71" width="4.62" height="14.39" transform="translate(-395.95 1023.93) rotate(-135.53)" fill="#caefc5" stroke="#3f3f3f" stroke-miterlimit="10"/><rect x="428.05" y="362.48" width="15.94" height="7.37" transform="translate(-131.38 413.63) rotate(-44.8)" fill="none"/><rect x="433.71" y="358.97" width="4.62" height="14.39" transform="translate(548.83 924.26) rotate(-141.45)" fill="#caefc5" stroke="#3f3f3f" stroke-miterlimit="10"/><rect x="606.08" y="224.48" width="7.37" height="15.94" transform="translate(354.59 833.06) rotate(-87.85)" fill="none"/><rect x="607.45" y="225.26" width="4.62" height="14.39" transform="translate(425.81 858.56) rotate(-94.5)" fill="#caefc5" stroke="#3f3f3f" stroke-miterlimit="10"/><rect x="548.17" y="428.19" width="7.37" height="15.94" transform="translate(-16.35 850.79) rotate(-74.44)" fill="none"/><rect x="549.54" y="428.96" width="4.62" height="14.39" transform="translate(35.45 913.76) rotate(-81.09)" fill="#caefc5" stroke="#3f3f3f" stroke-miterlimit="10"/><rect x="335.82" y="161.43" width="7.37" height="15.94" transform="translate(1.83 342.43) rotate(-53.65)" fill="none"/><rect x="337.19" y="162.21" width="4.62" height="14.39" transform="translate(24.12 380.34) rotate(-60.29)" fill="#caefc5" stroke="#3f3f3f" stroke-miterlimit="10"/><rect x="1139.89" y="165.34" width="15.94" height="7.37" transform="translate(25.76 464.07) rotate(-23.11)" fill="none"/><rect x="1145.55" y="161.83" width="4.62" height="14.39" transform="translate(1570.79 1249.44) rotate(-119.75)" fill="#caefc5" stroke="#3f3f3f" stroke-miterlimit="10"/><rect x="-1.46" y="5.09" width="15.94" height="7.37" transform="translate(-4.12 11.33) rotate(-66.96)" fill="none"/><rect x="4.2" y="1.58" width="4.62" height="14.39" transform="translate(10.28 19.03) rotate(-163.61)" fill="#caefc5" stroke="#3f3f3f" stroke-miterlimit="10"/><rect x="128.84" y="32.57" width="15.94" height="7.37" transform="translate(-4.62 41.64) rotate(-17.02)" fill="none"/><rect x="134.5" y="29.05" width="4.62" height="14.39" transform="translate(158.53 176.11) rotate(-113.67)" fill="#caefc5" stroke="#3f3f3f" stroke-miterlimit="10"/><rect x="722.44" y="106.28" width="15.94" height="7.37" transform="translate(221.51 645.32) rotate(-55.01)" fill="none"/><rect x="728.1" y="102.76" width="4.62" height="14.39" transform="translate(1321.07 553.49) rotate(-151.66)" fill="#caefc5" stroke="#3f3f3f" stroke-miterlimit="10"/></g></g></svg>