<svg xmlns="http://www.w3.org/2000/svg" viewBox="0 0 1218.56 725.47"><title>confetti-purple</title><g id="03171e57-7cbe-4e15-98ea-19e4056937ef" data-name="Layer 2"><g id="81efbb52-9a8e-45a4-8792-d713cf7dddee" data-name="confetti-purple"><rect x="392.46" y="293.56" width="9.38" height="16.06" transform="matrix(0.84, -0.55, 0.55, 0.84, -100.38, 267.73)" fill="none"/><rect x="394.88" y="294.52" width="4.54" height="14.13" transform="translate(-73.19 135.88) rotate(-17.8)" fill="#decced" stroke="#3f3f3f" stroke-miterlimit="10"/><rect x="264.24" y="184.17" width="16.06" height="9.38" transform="translate(-50.4 264.25) rotate(-47.9)" fill="none"/><rect x="270.01" y="181.79" width="4.54" height="14.13" transform="matrix(0.54, 0.84, -0.84, 0.54, 285.95, -142.22)" fill="#decced" stroke="#3f3f3f" stroke-miterlimit="10"/><rect x="262.24" y="391.25" width="9.38" height="16.06" transform="translate(-203.26 301.31) rotate(-44.47)" fill="none"/><rect x="264.66" y="392.21" width="4.54" height="14.13" transform="translate(-159.92 179.11) rotate(-28.95)" fill="#decced" stroke="#3f3f3f" stroke-miterlimit="10"/><rect x="74.02" y="229.94" width="9.38" height="16.06" transform="translate(-155.49 148.66) rotate(-50.82)" fill="none"/><rect x="76.45" y="230.9" width="4.54" height="14.13" transform="translate(-123.06 89.27) rotate(-35.31)" fill="#decced" stroke="#3f3f3f" stroke-miterlimit="10"/><rect x="320.15" y="626.01" width="9.38" height="16.06" transform="translate(-362.48 446.64) rotate(-47.62)" fill="none"/><rect x="322.57" y="626.98" width="4.54" height="14.13" transform="translate(-287.3 269.61) rotate(-32.11)" fill="#decced" stroke="#3f3f3f" stroke-miterlimit="10"/><rect x="879.97" y="266.66" width="9.38" height="16.06" transform="translate(511.38 1122.48) rotate(-83.49)" fill="none"/><rect x="882.39" y="267.63" width="4.54" height="14.13" transform="translate(298.2 991.73) rotate(-67.97)" fill="#decced" stroke="#3f3f3f" stroke-miterlimit="10"/><rect x="793.1" y="621.25" width="9.38" height="16.06" transform="translate(-177.4 343.86) rotate(-21.95)" fill="none"/><rect x="795.53" y="622.22" width="4.54" height="14.13" transform="translate(-65.51 93.39) rotate(-6.44)" fill="#decced" stroke="#3f3f3f" stroke-miterlimit="10"/><rect x="491.48" y="548.77" width="9.38" height="16.06" transform="translate(-24.25 22.6) rotate(-2.55)" fill="none"/><rect x="493.9" y="549.74" width="4.54" height="14.13" transform="translate(137.62 -97.15) rotate(12.97)" fill="#decced" stroke="#3f3f3f" stroke-miterlimit="10"/><rect x="1048.88" y="468.4" width="9.38" height="16.06" transform="translate(-72.65 738.4) rotate(-37.43)" fill="none"/><rect x="1051.3" y="469.36" width="4.54" height="14.13" transform="translate(-101.68 427.58) rotate(-21.91)" fill="#decced" stroke="#3f3f3f" stroke-miterlimit="10"/><rect x="1082.66" y="710.46" width="9.38" height="16.06" transform="translate(63.05 1524.33) rotate(-71.65)" fill="none"/><rect x="1085.09" y="711.43" width="4.54" height="14.13" transform="translate(-115.18 1220.95) rotate(-56.13)" fill="#decced" stroke="#3f3f3f" stroke-miterlimit="10"/><rect x="1142.06" y="213.86" width="16.06" height="9.38" transform="translate(505.51 1195.78) rotate(-67.35)" fill="none"/><rect x="1147.82" y="211.48" width="4.54" height="14.13" transform="translate(380.9 -663.96) rotate(38.17)" fill="#decced" stroke="#3f3f3f" stroke-miterlimit="10"/><rect x="929.72" y="38.8" width="16.06" height="9.38" transform="translate(592.9 916.62) rotate(-71.1)" fill="none"/><rect x="935.48" y="36.43" width="4.54" height="14.13" transform="translate(188.69 -522.35) rotate(34.41)" fill="#decced" stroke="#3f3f3f" stroke-miterlimit="10"/><rect x="705.31" y="109.71" width="16.06" height="9.38" transform="translate(571.28 822.76) rotate(-87.77)" fill="none"/><rect x="711.07" y="107.34" width="4.54" height="14.13" transform="translate(68.81 -211.96) rotate(17.74)" fill="#decced" stroke="#3f3f3f" stroke-miterlimit="10"/><rect x="1205.73" y="28.79" width="9.38" height="16.06" transform="translate(37.34 337.4) rotate(-16.11)" fill="none"/><rect x="1208.15" y="29.76" width="4.54" height="14.13" transform="translate(-0.32 12.64) rotate(-0.6)" fill="#decced" stroke="#3f3f3f" stroke-miterlimit="10"/><rect x="464.93" y="-1.74" width="9.38" height="16.06" transform="translate(363.63 463.84) rotate(-77.72)" fill="none"/><rect x="467.36" y="-0.77" width="4.54" height="14.13" transform="translate(245.09 418.81) rotate(-62.21)" fill="#decced" stroke="#3f3f3f" stroke-miterlimit="10"/><rect x="498.71" y="675.76" width="9.38" height="16.06" transform="translate(-319.91 476.08) rotate(-39.48)" fill="none"/><rect x="501.14" y="676.73" width="4.54" height="14.13" transform="translate(-234.34 263.41) rotate(-23.96)" fill="#decced" stroke="#3f3f3f" stroke-miterlimit="10"/><rect x="244.42" y="496.78" width="16.06" height="9.38" transform="translate(-261.38 727.72) rotate(-87.04)" fill="none"/><rect x="250.18" y="494.41" width="4.54" height="14.13" transform="translate(171.91 -54.15) rotate(18.47)" fill="#decced" stroke="#3f3f3f" stroke-miterlimit="10"/><rect x="741.5" y="290.72" width="16.06" height="9.38" transform="translate(443.44 1040.65) rotate(-89.18)" fill="none"/><rect x="747.26" y="288.34" width="4.54" height="14.13" transform="translate(113.34 -198.88) rotate(16.33)" fill="#decced" stroke="#3f3f3f" stroke-miterlimit="10"/><rect x="593.31" y="178.14" width="9.38" height="16.06" transform="translate(257.65 711.93) rotate(-74.38)" fill="none"/><rect x="595.73" y="179.1" width="4.54" height="14.13" transform="translate(129.41 601.72) rotate(-58.86)" fill="#decced" stroke="#3f3f3f" stroke-miterlimit="10"/><rect x="295.91" y="118.54" width="16.06" height="9.38" transform="translate(113.34 390.14) rotate(-76.54)" fill="none"/><rect x="301.67" y="116.17" width="4.54" height="14.13" transform="translate(510.13 378.29) rotate(-151.02)" fill="#decced" stroke="#3f3f3f" stroke-miterlimit="10"/><rect x="1166.3" y="298.23" width="9.38" height="16.06" transform="translate(-2.66 602.15) rotate(-28.81)" fill="none"/><rect x="1168.73" y="299.2" width="4.54" height="14.13" transform="translate(-39.04 277.41) rotate(-13.29)" fill="#decced" stroke="#3f3f3f" stroke-miterlimit="10"/><rect x="-1.51" y="706.7" width="16.06" height="9.38" transform="translate(-684.68 542.97) rotate(-75.78)" fill="none"/><rect x="4.25" y="704.33" width="4.54" height="14.13" transform="translate(353.71 90.44) rotate(29.74)" fill="#decced" stroke="#3f3f3f" stroke-miterlimit="10"/><rect x="1204.95" y="481.69" width="9.38" height="16.06" transform="translate(-7.94 959.36) rotate(-43.13)" fill="none"/><rect x="1207.37" y="482.65" width="4.54" height="14.13" transform="translate(-89.19 616.53) rotate(-27.62)" fill="#decced" stroke="#3f3f3f" stroke-miterlimit="10"/></g></g></svg>