<?xml version="1.0" encoding="utf-8"?>
<!-- Generator: Adobe Illustrator 21.0.2, SVG Export Plug-In . SVG Version: 6.00 Build 0)  -->
<svg version="1.1" id="Layer_1" xmlns="http://www.w3.org/2000/svg" xmlns:xlink="http://www.w3.org/1999/xlink" x="0px" y="0px"
	 viewBox="0 0 1309.6 728" style="enable-background:new 0 0 1309.6 728;" xml:space="preserve">
<style type="text/css">
	.st0{fill:none;}
	.st1{fill:#DECCED;stroke:#3F3F3F;stroke-miterlimit:10;}
	.st2{fill:#DECCED;stroke:#3F3F3F;stroke-width:0.9052;stroke-miterlimit:10;}
</style>
<title>confetti-purple-2</title>
<g id="_x31_66edc32-2723-4695-bdb5-934eee7bfcd6">
	<g id="a197d02e-576f-41c9-a3c5-9c150fbda8ef">
		
			<rect x="389.6" y="262.4" transform="matrix(0.857 -0.5153 0.5153 0.857 -80.7947 243.1137)" class="st0" width="16.1" height="9.4"/>
		
			<rect x="390.6" y="264.9" transform="matrix(0.9636 -0.2674 0.2674 0.9636 -56.9501 116.0677)" class="st1" width="14.1" height="4.5"/>
		
			<rect x="267.2" y="147.1" transform="matrix(0.683 -0.7304 0.7304 0.683 -27.0821 247.774)" class="st0" width="9.4" height="16.1"/>
		
			<rect x="269.7" y="148" transform="matrix(0.8536 -0.521 0.521 0.8536 -40.9876 164.3915)" class="st1" width="4.5" height="14.1"/>
		
			<rect x="262.2" y="360.8" transform="matrix(0.2758 -0.9612 0.9612 0.2758 -161.2636 523.7072)" class="st0" width="9.4" height="16.1"/>
		
			<rect x="263" y="361.4" transform="matrix(0.5219 -0.853 0.853 0.5219 -187.465 402.4625)" class="st1" width="4.5" height="14.1"/>
		
			<rect x="70.7" y="195.5" transform="matrix(0.211 -0.9775 0.9775 0.211 -133.6121 234.9348)" class="st0" width="16.1" height="9.4"/>
		
			<rect x="71.7" y="198" transform="matrix(0.4648 -0.8854 0.8854 0.4648 -135.1729 176.8589)" class="st1" width="14.1" height="4.5"/>
		
			<rect x="320.2" y="590.9" transform="matrix(0.5369 -0.8437 0.8437 0.5369 -354.8203 551.4433)" class="st0" width="9.4" height="16.1"/>
		
			<rect x="322.6" y="591.9" transform="matrix(0.743 -0.6693 0.6693 0.743 -317.3676 371.3106)" class="st1" width="4.5" height="14.1"/>
		
			<rect x="880" y="225.5" transform="matrix(0.8827 -0.4699 0.4699 0.8827 -5.986 443.1294)" class="st0" width="9.4" height="16.1"/>
		
			<rect x="882.4" y="226.4" transform="matrix(0.9762 -0.2168 0.2168 0.9762 -29.5737 197.3284)" class="st1" width="4.5" height="14.1"/>
		
			<rect x="789.7" y="571.4" transform="matrix(5.965479e-02 -0.9982 0.9982 5.965479e-02 175.1247 1338.0374)" class="st0" width="16.1" height="9.4"/>
		
			<rect x="790.7" y="573.8" transform="matrix(0.3246 -0.9459 0.9459 0.3246 -6.073 1143.7023)" class="st1" width="14.1" height="4.5"/>
		
			<rect x="488.2" y="525" transform="matrix(0.1168 -0.9932 0.9932 0.1168 -87.8615 960.6129)" class="st0" width="16.1" height="9.4"/>
		
			<rect x="489.1" y="527.4" transform="matrix(0.3782 -0.9257 0.9257 0.3782 -181.7757 788.7156)" class="st1" width="14.1" height="4.5"/>
		
			<rect x="1048.9" y="438.2" transform="matrix(0.9931 -0.117 0.117 0.9931 -44.975 126.3501)" class="st0" width="9.4" height="16.1"/>
		
			<rect x="1046.5" y="443.8" transform="matrix(0.1528 -0.9883 0.9883 0.1528 451.7398 1419.15)" class="st1" width="14.1" height="4.5"/>
		
			<rect x="1082.7" y="713.9" transform="matrix(0.199 -0.98 0.98 0.199 163.5276 1643.9127)" class="st0" width="9.4" height="16.1"/>
		
			<rect x="1085.1" y="692.7" transform="matrix(0.4538 -0.8911 0.8911 0.4538 -29.718 1351.1201)" class="st1" width="4.5" height="14.1"/>
		
			<rect x="1145.4" y="188.8" transform="matrix(0.9998 -1.989544e-02 1.989544e-02 0.9998 -3.688 22.9207)" class="st0" width="9.4" height="16.1"/>
		
			<rect x="1143" y="194.6" transform="matrix(0.2484 -0.9687 0.9687 0.2484 673.733 1262.0459)" class="st1" width="14.1" height="4.5"/>
		
			<rect x="933" y="37.2" transform="matrix(0.5162 -0.8564 0.8564 0.5162 414.8654 824.9919)" class="st0" width="9.4" height="16.1"/>
		
			<rect x="935.5" y="38.2" transform="matrix(0.7266 -0.6871 0.6871 0.7266 225.2788 656.7084)" class="st1" width="4.5" height="14.1"/>
		
			<rect x="708.7" y="55.4" transform="matrix(0.8479 -0.5302 0.5302 0.8479 74.8875 387.8903)" class="st0" width="9.4" height="16.1"/>
		
			<rect x="711.1" y="56.3" transform="matrix(0.9588 -0.2842 0.2842 0.9588 11.3988 205.3315)" class="st1" width="4.5" height="14.1"/>
		
			<rect x="1205.8" y="49.4" transform="matrix(0.6303 -0.7764 0.7764 0.6303 402.9716 960.9911)" class="st0" width="9.4" height="16.1"/>
		
			<rect x="1208.1" y="50.2" transform="matrix(0.8149 -0.5796 0.5796 0.8149 190.7954 712.098)" class="st1" width="4.5" height="14.1"/>
		
			<rect x="464.9" y="9.7" transform="matrix(0.5264 -0.8503 0.8503 0.5264 207.3436 407.6739)" class="st0" width="9.4" height="16.1"/>
		
			<rect x="467.4" y="10.7" transform="matrix(0.7347 -0.6784 0.6784 0.7347 112.5712 323.309)" class="st1" width="4.5" height="14.1"/>
		
			<rect x="498.7" y="637.6" transform="matrix(0.405 -0.9143 0.9143 0.405 -290.7746 844.4486)" class="st0" width="9.4" height="16.1"/>
		
			<rect x="501.1" y="638.5" transform="matrix(0.6347 -0.7727 0.7727 0.6347 -314.9525 624.7942)" class="st1" width="4.5" height="14.1"/>
		
			<rect x="247.7" y="448.5" transform="matrix(0.7342 -0.6789 0.6789 0.7342 -242.8563 292.7289)" class="st0" width="9.4" height="16.1"/>
		
			<rect x="250.2" y="449.4" transform="matrix(0.889 -0.4579 0.4579 0.889 -180.9923 166.2563)" class="st1" width="4.5" height="14.1"/>
		
			<rect x="744.8" y="243.9" transform="matrix(0.8442 -0.536 0.536 0.8442 -18.2862 440.9775)" class="st0" width="9.4" height="16.1"/>
		
			<rect x="747.3" y="244.8" transform="matrix(0.9568 -0.2907 0.2907 0.9568 -40.8511 228.7672)" class="st1" width="4.5" height="14.1"/>
		
			<rect x="593.3" y="144" transform="matrix(0.2693 -0.9631 0.9631 0.2693 290.5651 686.9387)" class="st0" width="9.4" height="16.1"/>
		
			<rect x="595.7" y="145" transform="matrix(0.5171 -0.8559 0.8559 0.5171 158.6334 585.2345)" class="st1" width="4.5" height="14.1"/>
		
			<rect x="295.9" y="118.4" transform="matrix(0.2328 -0.9725 0.9725 0.2328 113.4736 390.0165)" class="st0" width="16.1" height="9.4"/>
		
			<rect x="296.9" y="120.8" transform="matrix(0.4845 -0.8748 0.8748 0.4845 49.0215 329.3439)" class="st1" width="14.1" height="4.5"/>
		
			<rect x="1166.3" y="264" transform="matrix(0.8762 -0.4819 0.4819 0.8762 13.8327 597.9751)" class="st0" width="9.4" height="16.1"/>
		
			<rect x="1168.7" y="265.1" transform="matrix(0.9732 -0.2299 0.2299 0.9732 -31.1985 276.4782)" class="st1" width="4.5" height="14.1"/>
		
			<rect x="-1.5" y="672.6" transform="matrix(0.2456 -0.9694 0.9694 0.2456 -651.5834 517.2096)" class="st0" width="16.1" height="9.4"/>
		<polygon class="st2" points="41.3,665 44.5,667.2 38.8,679.5 35.5,677.2 		"/>
		
			<rect x="1205" y="447.6" transform="matrix(0.7298 -0.6837 0.6837 0.7298 15.3489 950.1096)" class="st0" width="9.4" height="16.1"/>
		
			<rect x="1207.4" y="448.4" transform="matrix(0.886 -0.4636 0.4636 0.886 -73.3265 612.6986)" class="st1" width="4.5" height="14.1"/>
		
			<rect x="405.1" y="22.6" transform="matrix(7.330285e-03 -1 1 7.330285e-03 376.2447 440.1832)" class="st0" width="9.4" height="16.1"/>
		
			<rect x="407.5" y="23.5" transform="matrix(0.2745 -0.9616 0.9616 0.2745 267.9257 416.2421)" class="st1" width="4.5" height="14.1"/>
		
			<rect x="183.2" y="3.7" transform="matrix(7.828506e-02 -0.9969 0.9969 7.828506e-02 167.8984 198.3438)" class="st0" width="16.1" height="9.4"/>
		
			<rect x="184.1" y="6.1" transform="matrix(0.3422 -0.9396 0.9396 0.3422 117.9056 185.1817)" class="st1" width="14.1" height="4.5"/>
		
			<rect x="1138.9" y="52.5" transform="matrix(0.9992 -3.925982e-02 3.925982e-02 0.9992 -1.4949 44.9454)" class="st0" width="9.4" height="16.1"/>
		
			<rect x="1136.6" y="58.1" transform="matrix(0.2294 -0.9733 0.9733 0.2294 822.5334 1159.7164)" class="st1" width="14.1" height="4.5"/>
		
			<rect x="20.5" y="139.8" transform="matrix(0.8678 -0.497 0.497 0.8678 -70.1667 32.0494)" class="st0" width="9.4" height="16.1"/>
		
			<rect x="22.9" y="140.8" transform="matrix(0.9691 -0.2468 0.2468 0.9691 -35.72 10.7859)" class="st1" width="4.5" height="14.1"/>
		
			<rect x="1105.5" y="160.6" transform="matrix(0.1754 -0.9845 0.9845 0.1754 749.501 1232.0824)" class="st0" width="9.4" height="16.1"/>
		
			<rect x="1107.9" y="161.5" transform="matrix(0.4324 -0.9017 0.9017 0.4324 478.1083 1096.7112)" class="st1" width="4.5" height="14.1"/>
		
			<rect x="874.9" y="100.7" transform="matrix(0.8257 -0.5641 0.5641 0.8257 91.977 515.1454)" class="st0" width="9.4" height="16.1"/>
		
			<rect x="877.4" y="101.7" transform="matrix(0.9465 -0.3226 0.3226 0.9465 11.9313 289.5837)" class="st1" width="4.5" height="14.1"/>
		
			<rect x="578.3" y="32.7" transform="matrix(0.6865 -0.7272 0.7272 0.6865 153.1525 436.694)" class="st0" width="9.4" height="16.1"/>
		<rect x="580.7" y="33.7" transform="matrix(0.856 -0.517 0.517 0.856 62.8681 307.2728)" class="st1" width="4.5" height="14.1"/>
		
			<rect x="565.5" y="231.6" transform="matrix(0.4079 -0.913 0.913 0.4079 118.8221 662.5587)" class="st0" width="9.4" height="16.1"/>
		
			<rect x="567.9" y="232.6" transform="matrix(0.6372 -0.7707 0.7707 0.6372 22.2026 526.4094)" class="st1" width="4.5" height="14.1"/>
		
			<rect x="1296.4" y="187.6" transform="matrix(7.811116e-02 -0.9969 0.9969 7.811116e-02 1004.4337 1477.549)" class="st0" width="9.4" height="16.1"/>
		
			<rect x="1283.1" y="217.2" transform="matrix(0.342 -0.9397 0.9397 0.342 634.9966 1355.3965)" class="st1" width="4.5" height="14.1"/>
		
			<rect x="241.9" y="69.1" transform="matrix(0.2855 -0.9584 0.9584 0.2855 102.2581 291.4126)" class="st0" width="9.4" height="16.1"/>
		
			<rect x="244.3" y="70.1" transform="matrix(0.5315 -0.847 0.847 0.5315 50.183 245.0081)" class="st1" width="4.5" height="14.1"/>
		
			<rect x="134.9" y="66.8" transform="matrix(0.4942 -0.8693 0.8693 0.4942 10.1763 160.4227)" class="st0" width="16.1" height="9.4"/>
		
			<rect x="135.9" y="69.2" transform="matrix(0.7087 -0.7055 0.7055 0.7087 -8.7649 121.683)" class="st1" width="14.1" height="4.5"/>
		
			<rect x="812.5" y="13.2" transform="matrix(0.9544 -0.2984 0.2984 0.9544 30.8769 244.7871)" class="st0" width="9.4" height="16.1"/>
		
			<rect x="814.9" y="14.3" transform="matrix(0.9995 -3.210854e-02 3.210854e-02 0.9995 -0.2631 26.2495)" class="st1" width="4.5" height="14.1"/>
		
			<rect x="330.8" y="189.4" transform="matrix(0.328 -0.9447 0.9447 0.328 44.364 450.4692)" class="st0" width="16.1" height="9.4"/>
		
			<rect x="330.7" y="191.7" transform="matrix(0.5708 -0.8211 0.8211 0.5708 -14.3073 360.6145)" class="st1" width="14.1" height="4.5"/>
		
			<rect x="47.4" y="232.3" transform="matrix(0.7598 -0.6501 0.6501 0.7598 -143.7557 91.6135)" class="st0" width="9.4" height="16.1"/>
		
			<rect x="49.8" y="233.3" transform="matrix(0.9061 -0.4231 0.4231 0.9061 -96.8133 44.6215)" class="st1" width="4.5" height="14.1"/>
		
			<rect x="860.7" y="142.1" transform="matrix(0.9725 -0.2331 0.2331 0.9725 -11.1518 205.873)" class="st0" width="9.4" height="16.1"/>
		
			<rect x="858.4" y="147.9" transform="matrix(3.559719e-02 -0.9994 0.9994 3.559719e-02 684.5295 1009.6998)" class="st1" width="14.1" height="4.5"/>
		
			<rect x="821" y="10.1" transform="matrix(0.4253 -0.905 0.905 0.4253 458.1561 757.6987)" class="st0" width="9.4" height="16.1"/>
		
			<rect x="823.4" y="11" transform="matrix(0.6518 -0.7584 0.7584 0.6518 273.7809 632.4118)" class="st1" width="4.5" height="14.1"/>
		
			<rect x="194.5" y="18" transform="matrix(0.3318 -0.9433 0.9433 0.3318 113.9559 206.2417)" class="st0" width="16.1" height="9.4"/>
		
			<rect x="195.5" y="20.4" transform="matrix(0.5721 -0.8202 0.8202 0.5721 68.0682 175.8605)" class="st1" width="14.1" height="4.5"/>
		
			<rect x="1087.8" y="60.8" transform="matrix(0.997 -7.689305e-02 7.689305e-02 0.997 -2.0601 84.2115)" class="st0" width="9.4" height="16.1"/>
		
			<rect x="1085.5" y="66.7" transform="matrix(0.1927 -0.9813 0.9813 0.1927 814.37 1127.7205)" class="st1" width="14.1" height="4.5"/>
		
			<rect x="955.9" y="72.3" transform="matrix(0.9018 -0.4321 0.4321 0.9018 59.5861 422.9285)" class="st0" width="9.4" height="16.1"/>
		
			<rect x="958.3" y="73.2" transform="matrix(0.9845 -0.1752 0.1752 0.9845 0.7974 169.5204)" class="st1" width="4.5" height="14.1"/>
		
			<rect x="1234.1" y="70.9" transform="matrix(0.4264 -0.9045 0.9045 0.4264 639.1472 1165.7725)" class="st0" width="9.4" height="16.1"/>
		
			<rect x="1236.4" y="71.8" transform="matrix(0.6528 -0.7576 0.7576 0.6528 370.3835 965.7511)" class="st1" width="4.5" height="14.1"/>
		
			<rect x="1204.2" y="182.3" transform="matrix(0.9999 -1.727790e-02 1.727790e-02 0.9999 -3.1083 20.9162)" class="st0" width="9.4" height="16.1"/>
		
			<rect x="1204.4" y="187.5" transform="matrix(0.2496 -0.9684 0.9684 0.2496 725.3936 1315.5448)" class="st1" width="14.2" height="4.5"/>
		
			<rect x="830.9" y="229.2" transform="matrix(0.9629 -0.2698 0.2698 0.9629 -33.0232 234.2136)" class="st0" width="9.4" height="16.1"/>
		
			<rect x="833.4" y="230.3" transform="matrix(1 -2.268920e-03 2.268920e-03 1 -0.5363 1.8966)" class="st1" width="4.5" height="14.1"/>
		
			<rect x="205" y="298.2" transform="matrix(0.9389 -0.3442 0.3442 0.9389 -92.5814 90.8591)" class="st0" width="9.4" height="16.1"/>
		
			<rect x="207.4" y="299.1" transform="matrix(0.9968 -8.054686e-02 8.054686e-02 0.9968 -23.9822 17.885)" class="st1" width="4.5" height="14.1"/>
		
			<rect x="237.6" y="96.8" transform="matrix(0.6045 -0.7966 0.7966 0.6045 12.3105 234.5277)" class="st0" width="9.4" height="16.1"/>
		
			<rect x="240.1" y="97.8" transform="matrix(0.7955 -0.606 0.606 0.7955 -13.9747 168.287)" class="st1" width="4.5" height="14.1"/>
	</g>
</g>
<g>
	<g>
		<g>
			
				<rect x="402.5" y="404.4" transform="matrix(0.257 -0.9664 0.9664 0.257 -95.9606 699.9577)" class="st0" width="9.4" height="16.1"/>
			
				<rect x="404.9" y="405.3" transform="matrix(0.5061 -0.8625 0.8625 0.5061 -154.5509 554.8765)" class="st1" width="4.5" height="14.1"/>
		</g>
	</g>
</g>
<g>
	<g>
		<g>
			
				<rect x="858.3" y="421.2" transform="matrix(0.9114 -0.4115 0.4115 0.9114 -100.1707 393.0982)" class="st0" width="9.4" height="16.1"/>
			
				<rect x="860.7" y="422.1" transform="matrix(0.9883 -0.1527 0.1527 0.9883 -55.411 136.7759)" class="st1" width="4.5" height="14.1"/>
		</g>
	</g>
</g>
<g>
	<g>
		<g>
			
				<rect x="105.2" y="441.4" transform="matrix(0.1643 -0.9864 0.9864 0.1643 -345.3719 484.4892)" class="st0" width="16.1" height="9.4"/>
			<rect x="111" y="439" transform="matrix(0.9065 0.4221 -0.4221 0.9065 198.89 -6.1065)" class="st1" width="4.5" height="14.1"/>
		</g>
	</g>
</g>
<g>
	<g>
		<g>
			
				<rect x="995.6" y="236.3" transform="matrix(0.2466 -0.9691 0.9691 0.2466 522.6011 1154.1544)" class="st0" width="16.1" height="9.4"/>
			
				<rect x="1001.3" y="233.9" transform="matrix(0.8678 0.4969 -0.4969 0.8678 252.3622 -466.7941)" class="st1" width="4.5" height="14.1"/>
		</g>
	</g>
</g>
<g>
	<g>
		<g>
			
				<rect x="460.2" y="91.2" transform="matrix(0.8743 -0.4854 0.4854 0.8743 10.2588 238.1547)" class="st0" width="9.4" height="16.1"/>
			
				<rect x="462.6" y="92.2" transform="matrix(0.9723 -0.2339 0.2339 0.9723 -10.3247 111.4796)" class="st1" width="4.5" height="14.1"/>
		</g>
	</g>
</g>
<g>
	<g>
		<g>
			
				<rect x="166.2" y="203.2" transform="matrix(0.3736 -0.9276 0.9276 0.3736 -88.8387 290.8198)" class="st0" width="9.4" height="16.1"/>
			
				<rect x="168.6" y="204.1" transform="matrix(0.6081 -0.7939 0.7939 0.6081 -100.6751 218.435)" class="st1" width="4.5" height="14.1"/>
		</g>
	</g>
</g>
<g>
	<g>
		<g>
			
				<rect x="520.7" y="285" transform="matrix(0.8194 -0.5732 0.5732 0.8194 -73.0943 354.0225)" class="st0" width="9.4" height="16.1"/>
			
				<rect x="523.1" y="286" transform="matrix(0.9429 -0.3331 0.3331 0.9429 -67.6007 191.7089)" class="st1" width="4.5" height="14.1"/>
		</g>
	</g>
</g>
<g>
	<g>
		<g>
			
				<rect x="724.6" y="304.3" transform="matrix(0.3073 -0.9516 0.9516 0.3073 207.9873 910.4073)" class="st0" width="9.4" height="16.1"/>
			
				<rect x="727" y="305.3" transform="matrix(0.5506 -0.8347 0.8347 0.5506 67.0016 749.1527)" class="st1" width="4.5" height="14.1"/>
		</g>
	</g>
</g>
<g>
	<g>
		<g>
			
				<rect x="938.4" y="314.2" transform="matrix(0.1482 -0.989 0.989 0.1482 484.7094 1207.2021)" class="st0" width="9.4" height="16.1"/>
			
				<rect x="940.9" y="315.2" transform="matrix(0.4073 -0.9133 0.9133 0.4073 264.6818 1052.3235)" class="st1" width="4.5" height="14.1"/>
		</g>
	</g>
</g>
<g>
	<g>
		<g>
			
				<rect x="597.1" y="383.1" transform="matrix(6.192834e-02 -0.9981 0.9981 6.192834e-02 180.6169 967.8242)" class="st0" width="16.1" height="9.4"/>
			
				<rect x="602.9" y="380.8" transform="matrix(0.9451 0.3267 -0.3267 0.9451 159.8882 -176.4131)" class="st1" width="4.5" height="14.1"/>
		</g>
	</g>
</g>
<g>
	<g>
		<g>
			
				<rect x="690.7" y="125" transform="matrix(0.1494 -0.9888 0.9888 0.1494 466.0359 801.2061)" class="st0" width="16.1" height="9.4"/>
			
				<rect x="696.4" y="122.7" transform="matrix(0.9128 0.4085 -0.4085 0.9128 113.9412 -274.0936)" class="st1" width="4.5" height="14.1"/>
		</g>
	</g>
</g>
</svg>
