<?xml version="1.0" encoding="utf-8"?>
<!-- Generator: Adobe Illustrator 21.0.2, SVG Export Plug-In . SVG Version: 6.00 Build 0)  -->
<svg version="1.1" id="Layer_1" xmlns="http://www.w3.org/2000/svg" xmlns:xlink="http://www.w3.org/1999/xlink" x="0px" y="0px"
	 viewBox="0 0 1274.7 643.4" style="enable-background:new 0 0 1274.7 643.4;" xml:space="preserve">
<style type="text/css">
	.st0{fill:none;}
	.st1{fill:#CAEFC5;stroke:#3F3F3F;stroke-miterlimit:10;}
	.st2{fill:#C6EAC1;stroke:#000000;stroke-miterlimit:10;}
</style>
<title>confetti-green-2</title>
<g id="_x30_2c4cc5c-1cd5-4cce-9314-3b66d4084c0f">
	<g id="a9002fbd-635e-4f0e-a0ac-af48ea151283">
		
			<rect x="1036.9" y="67.8" transform="matrix(0.7302 -0.6833 0.6833 0.7302 229.0281 731.4431)" class="st0" width="7.4" height="15.9"/>
		<rect x="1042" y="72.2" transform="matrix(0.65 -0.76 0.76 0.65 305.2287 821.4183)" class="st1" width="4.6" height="14.4"/>
		
			<rect x="991.6" y="253.6" transform="matrix(0.9256 -0.3785 0.3785 0.9256 -23.0193 397.4623)" class="st0" width="15.9" height="7.4"/>
		
			<rect x="992.4" y="255.1" transform="matrix(0.8756 -0.483 0.483 0.8756 1.362103e-02 514.7828)" class="st1" width="14.4" height="4.6"/>
		
			<rect x="1184.2" y="355.3" transform="matrix(0.2478 -0.9688 0.9688 0.2478 541.5342 1423.9998)" class="st0" width="7.4" height="15.9"/>
		
			<rect x="1185.5" y="356" transform="matrix(0.134 -0.991 0.991 0.134 668.6969 1491.5908)" class="st1" width="4.6" height="14.4"/>
		
			<rect x="899.9" y="510.4" transform="matrix(0.258 -0.9662 0.9662 0.258 176.9205 1258.6046)" class="st0" width="15.9" height="7.4"/>
		
			<rect x="900.7" y="511.8" transform="matrix(0.1445 -0.9895 0.9895 0.1445 267.9539 1338.192)" class="st1" width="14.4" height="4.6"/>
		
			<rect x="364.2" y="485.2" transform="matrix(0.4464 -0.8949 0.8949 0.4464 -231.4561 603.7368)" class="st0" width="15.9" height="7.4"/>
		
			<rect x="365" y="486.7" transform="matrix(0.3399 -0.9405 0.9405 0.3399 -214.1629 672.8068)" class="st1" width="14.4" height="4.6"/>
		
			<rect x="296.1" y="95.1" transform="matrix(0.7765 -0.6301 0.6301 0.7765 2.0502 211.9544)" class="st0" width="7.4" height="15.9"/>
		
			<rect x="297.5" y="95.9" transform="matrix(0.6983 -0.7158 0.7158 0.6983 16.6799 245.6933)" class="st1" width="4.6" height="14.4"/>
		
			<rect x="103.6" y="161.2" transform="matrix(0.7894 -0.6139 0.6139 0.7894 -77.7076 103.2223)" class="st0" width="15.9" height="7.4"/>
		
			<rect x="104.4" y="162.6" transform="matrix(0.7131 -0.701 0.701 0.7131 -83.5717 125.5229)" class="st1" width="14.4" height="4.6"/>
		
			<rect x="265.3" y="280" transform="matrix(0.9813 -0.1924 0.1924 0.9813 -49.4606 57.8593)" class="st0" width="15.9" height="7.4"/>
		
			<rect x="266.1" y="281.4" transform="matrix(0.9525 -0.3045 0.3045 0.9525 -73.4147 96.6929)" class="st1" width="14.4" height="4.6"/>
		
			<rect x="132" y="412.6" transform="matrix(0.7493 -0.6622 0.6622 0.7493 -244.4659 195.2943)" class="st0" width="7.4" height="15.9"/>
		
			<rect x="133.4" y="413.3" transform="matrix(0.6676 -0.7445 0.7445 0.6676 -267.9703 240.8371)" class="st1" width="4.6" height="14.4"/>
		
			<rect x="605.1" y="631.3" transform="matrix(0.6408 -0.7677 0.7677 0.6408 -267.2578 698.7544)" class="st0" width="15.9" height="7.4"/>
		
			<rect x="605.8" y="623.7" transform="matrix(0.5476 -0.8368 0.8368 0.5476 -246.4314 796.1578)" class="st1" width="14.4" height="4.6"/>
		
			<rect x="810.1" y="365.7" transform="matrix(0.6586 -0.7525 0.7525 0.6586 -3.3608 739.9616)" class="st0" width="7.4" height="15.9"/>
		
			<rect x="811.5" y="366.6" transform="matrix(0.5671 -0.8236 0.8236 0.5671 44.4317 832.0503)" class="st1" width="4.6" height="14.4"/>
		
			<rect x="1180.7" y="582.2" transform="matrix(0.9002 -0.4355 0.4355 0.9002 -136.528 576.2037)" class="st0" width="15.9" height="7.4"/>
		
			<rect x="1181.5" y="583.5" transform="matrix(0.8437 -0.5369 0.5369 0.8437 -128.6825 729.7215)" class="st1" width="14.4" height="4.6"/>
		
			<rect x="554.3" y="29.4" transform="matrix(9.271815e-02 -0.9957 0.9957 9.271815e-02 469.0667 589.4531)" class="st0" width="7.4" height="15.9"/>
		
			<rect x="550.8" y="35" transform="matrix(0.9997 -2.303630e-02 2.303630e-02 0.9997 -0.7123 12.8649)" class="st1" width="14.4" height="4.6"/>
		
			<rect x="89.1" y="569.6" transform="matrix(0.7785 -0.6277 0.6277 0.7785 -338.3465 187.9535)" class="st0" width="15.9" height="7.4"/>
		
			<rect x="89.9" y="571" transform="matrix(0.7005 -0.7136 0.7136 0.7005 -380.0234 240.9556)" class="st1" width="14.4" height="4.6"/>
		
			<rect x="513.8" y="343.9" transform="matrix(0.7096 -0.7046 0.7046 0.7096 -93.3874 468.6335)" class="st0" width="15.9" height="7.4"/>
		
			<rect x="514.6" y="345.3" transform="matrix(0.6232 -0.7821 0.7821 0.6232 -75.2026 539.0375)" class="st1" width="14.4" height="4.6"/>
		
			<rect x="691.8" y="205.9" transform="matrix(3.751580e-02 -0.9993 0.9993 3.751580e-02 455.7516 900.8416)" class="st0" width="7.4" height="15.9"/>
		
			<rect x="688.3" y="211.5" transform="matrix(0.9969 -7.845910e-02 7.845910e-02 0.9969 -14.6326 55.225)" class="st1" width="14.4" height="4.6"/>
		
			<rect x="633.9" y="409.6" transform="matrix(0.2682 -0.9634 0.9634 0.2682 64.3373 919.7992)" class="st0" width="7.4" height="15.9"/>
		
			<rect x="635.3" y="410.3" transform="matrix(0.1549 -0.9879 0.9879 0.1549 126.3622 982.7359)" class="st1" width="4.6" height="14.4"/>
		
			<rect x="421.6" y="142.8" transform="matrix(0.5927 -0.8054 0.8054 0.5927 51.7643 403.9282)" class="st0" width="7.4" height="15.9"/>
		
			<rect x="423" y="143.6" transform="matrix(0.4956 -0.8685 0.8685 0.4956 83.5206 445.4578)" class="st1" width="4.6" height="14.4"/>
		
			<rect x="1225.7" y="146.7" transform="matrix(0.9198 -0.3925 0.3925 0.9198 39.9674 496.2611)" class="st0" width="15.9" height="7.4"/>
		
			<rect x="1226.5" y="148.1" transform="matrix(0.8682 -0.4962 0.4962 0.8682 87.9858 632.0099)" class="st1" width="14.4" height="4.6"/>
		
			<rect x="84.3" y="20.5" transform="matrix(0.3914 -0.9202 0.9202 0.3914 33.9265 99.6307)" class="st0" width="15.9" height="7.4"/>
		
			<rect x="85.1" y="21.9" transform="matrix(0.2822 -0.9594 0.9594 0.2822 43.0516 105.8716)" class="st1" width="14.4" height="4.6"/>
		
			<rect x="214.6" y="48.4" transform="matrix(0.7019 -0.7123 0.7123 0.7019 29.2731 174.0562)" class="st0" width="15.9" height="7.4"/>
		
			<rect x="215.4" y="49.7" transform="matrix(0.6148 -0.7887 0.7887 0.6148 44.6815 195.6034)" class="st1" width="14.4" height="4.6"/>
		
			<rect x="808.2" y="87.7" transform="matrix(0.5734 -0.8193 0.8193 0.5734 273.3133 707.6572)" class="st0" width="15.9" height="7.4"/>
		
			<rect x="809" y="89.1" transform="matrix(0.4747 -0.8801 0.8801 0.4747 348.3123 766.3449)" class="st1" width="14.4" height="4.6"/>
		
			<rect x="783.3" y="301.9" transform="matrix(0.9728 -0.2317 0.2317 0.9728 -49.2877 191.6931)" class="st0" width="15.9" height="7.4"/>
		
			<rect x="516.1" y="89.4" transform="matrix(0.6353 -0.7723 0.7723 0.6353 114.3377 436.9339)" class="st0" width="7.4" height="15.9"/>
		
			<rect x="517.4" y="90.2" transform="matrix(0.5416 -0.8407 0.8407 0.5416 156.4015 481.5614)" class="st2" width="4.6" height="14.4"/>
		
			<rect x="846.7" y="7.5" transform="matrix(0.6154 -0.7882 0.7882 0.6154 319.9553 677.9968)" class="st0" width="15.9" height="7.4"/>
		<rect x="847.5" y="8.9" transform="matrix(0.52 -0.8542 0.8542 0.52 400.7079 735.4493)" class="st2" width="14.4" height="4.6"/>
		<rect x="1102.2" y="108.5" transform="matrix(0.28 -0.96 0.96 0.28 684.3763 1145.5297)" class="st0" width="7.4" height="15.9"/>
		
			<rect x="1103.7" y="109.4" transform="matrix(0.1671 -0.9859 0.9859 0.1671 806.2315 1187.5098)" class="st2" width="4.6" height="14.4"/>
		
			<rect x="966" y="31.6" transform="matrix(0.9635 -0.2676 0.2676 0.9635 26.0649 261.8883)" class="st0" width="15.9" height="7.4"/>
		
			<rect x="966.8" y="33" transform="matrix(0.9261 -0.3772 0.3772 0.9261 58.6165 369.9974)" class="st2" width="14.4" height="4.6"/>
		
			<rect x="1262.7" y="79.8" transform="matrix(0.1189 -0.9929 0.9929 0.1189 1028.5695 1334.7478)" class="st0" width="7.4" height="15.9"/>
		
			<rect x="1256" y="80.6" transform="matrix(3.141593e-03 -1 1 3.141593e-03 1166.5214 1345.7898)" class="st2" width="4.6" height="14.4"/>
		
			<rect x="317.3" y="49.7" transform="matrix(0.2666 -0.9638 0.9638 0.2666 179.8432 351.7253)" class="st0" width="7.4" height="15.9"/>
		
			<rect x="318.7" y="50.5" transform="matrix(0.1532 -0.9882 0.9882 0.1532 214.8297 366.0723)" class="st2" width="4.6" height="14.4"/>
		<rect x="403.9" y="203" transform="matrix(0.419 -0.908 0.908 0.419 45.2599 492.6972)" class="st0" width="7.4" height="15.9"/>
		
			<rect x="405.3" y="203.8" transform="matrix(0.311 -0.9504 0.9504 0.311 80.3276 532.7285)" class="st2" width="4.6" height="14.4"/>
		
			<rect x="210.9" y="220.9" transform="matrix(0.9988 -4.919842e-02 4.919842e-02 0.9988 -10.7824 11.0376)" class="st0" width="15.9" height="7.4"/>
		
			<rect x="211.6" y="222.2" transform="matrix(0.9864 -0.1645 0.1645 0.9864 -33.9589 39.0646)" class="st2" width="14.4" height="4.6"/>
		
			<rect x="914.9" y="156.6" transform="matrix(0.9657 -0.2598 0.2598 0.9657 -9.9495 245.2897)" class="st0" width="15.9" height="7.4"/>
		
			<rect x="915.6" y="158" transform="matrix(0.9291 -0.3699 0.3699 0.9291 6.1564 352.7103)" class="st2" width="14.4" height="4.6"/>
		
			<rect x="398.3" y="83.7" transform="matrix(0.7935 -0.6086 0.6086 0.7935 27.251 263.5589)" class="st0" width="7.4" height="15.9"/>
		
			<rect x="399.6" y="84.4" transform="matrix(0.7176 -0.6964 0.6964 0.7176 49.6998 305.7703)" class="st2" width="4.6" height="14.4"/>
		
			<rect x="61.8" y="118.7" transform="matrix(0.52 -0.8542 0.8542 0.52 -70.9951 118.3552)" class="st0" width="15.9" height="7.4"/>
		
			<rect x="62.6" y="120" transform="matrix(0.4175 -0.9087 0.9087 0.4175 -70.5191 134.6734)" class="st2" width="14.4" height="4.6"/>
		
			<rect x="629.6" y="67.2" transform="matrix(0.6334 -0.7738 0.7738 0.6334 178.8667 519.3688)" class="st0" width="15.9" height="7.4"/>
		
			<rect x="630.3" y="68.6" transform="matrix(0.5395 -0.842 0.842 0.5395 233.842 569.455)" class="st2" width="14.4" height="4.6"/>
		
			<rect x="721.9" y="29.9" transform="matrix(0.9503 -0.3113 0.3113 0.9503 25.8142 228.8923)" class="st0" width="15.9" height="7.4"/>
		
			<rect x="722.6" y="31.3" transform="matrix(0.9079 -0.4193 0.4193 0.9079 53.1625 309.0854)" class="st2" width="14.4" height="4.6"/>
		
			<rect x="1065.3" y="249.8" transform="matrix(0.4179 -0.9085 0.9085 0.4179 394.4843 1122.6956)" class="st0" width="15.9" height="7.4"/>
		
			<rect x="1066.1" y="251.3" transform="matrix(0.3098 -0.9508 0.9508 0.3098 499.5956 1195.4664)" class="st2" width="14.4" height="4.6"/>
		
			<rect x="993" y="140.7" transform="matrix(0.9752 -0.2212 0.2212 0.9752 -7.1509 224.9898)" class="st0" width="15.9" height="7.4"/>
		
			<rect x="993.7" y="142.1" transform="matrix(0.943 -0.3327 0.3327 0.943 8.9673 341.1706)" class="st2" width="14.4" height="4.6"/>
		
			<rect x="472.1" y="254" transform="matrix(3.088736e-02 -0.9995 0.9995 3.088736e-02 199.2274 729.4237)" class="st0" width="7.4" height="15.9"/>
		
			<rect x="468.5" y="259.6" transform="matrix(0.9964 -8.506908e-02 8.506908e-02 0.9964 -20.5598 41.4193)" class="st2" width="14.4" height="4.6"/>
		
			<rect x="675.1" y="122" transform="matrix(0.4156 -0.9095 0.9095 0.4156 278.4038 693.3007)" class="st0" width="7.4" height="15.9"/>
		
			<rect x="676.4" y="122.8" transform="matrix(0.3075 -0.9515 0.9515 0.3075 346.3271 735.812)" class="st2" width="4.6" height="14.4"/>
		
			<rect x="561.5" y="77.3" transform="matrix(0.7396 -0.673 0.673 0.7396 89.7541 402.5557)" class="st0" width="7.4" height="15.9"/>
		
			<rect x="562.9" y="78.1" transform="matrix(0.6568 -0.754 0.754 0.6568 129.6083 455.4445)" class="st2" width="4.6" height="14.4"/>
		
			<rect x="44.8" y="146" transform="matrix(0.4997 -0.8662 0.8662 0.4997 -109.1294 119.0785)" class="st0" width="7.4" height="15.9"/>
		
			<rect x="46.2" y="146.8" transform="matrix(0.3962 -0.9182 0.9182 0.3962 -112.1258 137.5436)" class="st2" width="4.6" height="14.4"/>
		
			<rect x="358.5" y="18.1" transform="matrix(0.8689 -0.495 0.495 0.8689 37.2479 184.2585)" class="st0" width="15.9" height="7.4"/>
		
			<rect x="359.3" y="19.5" transform="matrix(0.8057 -0.5923 0.5923 0.8057 58.2831 221.2801)" class="st2" width="14.4" height="4.6"/>
		
			<rect x="535.9" y="180.3" transform="matrix(0.7891 -0.6143 0.6143 0.7891 1.6799 372.9105)" class="st0" width="15.9" height="7.4"/>
		
			<rect x="536.7" y="181.7" transform="matrix(0.7126 -0.7015 0.7015 0.7126 27.1805 434.4082)" class="st2" width="14.4" height="4.6"/>
		
			<rect x="1031.3" y="132.5" transform="matrix(0.2312 -0.9729 0.9729 0.2312 659.0196 1114.9392)" class="st0" width="7.4" height="15.9"/>
		
			<rect x="1032.6" y="133.2" transform="matrix(0.117 -0.9931 0.9931 0.117 774.35 1151.8219)" class="st2" width="4.6" height="14.4"/>
		
			<rect x="899.7" y="227.9" transform="matrix(0.1903 -0.9817 0.9817 0.1903 499.8985 1077.7719)" class="st0" width="7.4" height="15.9"/>
		
			<rect x="897.8" y="225.3" transform="matrix(7.080104e-02 -0.9975 0.9975 7.080104e-02 604.4874 1113.9337)" class="st2" width="4.6" height="14.4"/>
		
			<rect x="375.5" y="145.8" transform="matrix(0.6289 -0.7775 0.7775 0.6289 26.1024 353.5913)" class="st0" width="15.9" height="7.4"/>
		
			<rect x="376.3" y="147.2" transform="matrix(0.5348 -0.845 0.845 0.5348 52.1083 393.5839)" class="st2" width="14.4" height="4.6"/>
		
			<rect x="0.8" y="48.9" transform="matrix(0.8824 -0.4705 0.4705 0.8824 -23.7183 10.3142)" class="st0" width="15.9" height="7.4"/>
		<rect x="9.8" y="68.6" transform="matrix(0.822 -0.5694 0.5694 0.822 -37.3732 22.3041)" class="st2" width="14.4" height="4.6"/>
		
			<rect x="54.8" y="34.7" transform="matrix(0.2207 -0.9753 0.9753 0.2207 3.8988 90.2736)" class="st0" width="7.4" height="15.9"/>
		<rect x="56.1" y="35.5" transform="matrix(0.1063 -0.9943 0.9943 0.1063 9.793 96.2722)" class="st2" width="4.6" height="14.4"/>
		
			<rect x="669.3" y="5.6" transform="matrix(5.216162e-02 -0.9986 0.9986 5.216162e-02 632.6341 685.1312)" class="st0" width="15.9" height="7.4"/>
		
			<rect x="675" y="11.1" transform="matrix(0.998 -6.366133e-02 6.366133e-02 0.998 0.2089 43.1547)" class="st2" width="4.6" height="14.4"/>
		
			<rect x="1035.5" y="6.1" transform="matrix(0.3981 -0.9173 0.9173 0.3981 619.0889 963.0788)" class="st0" width="15.9" height="7.4"/>
		
			<rect x="1036.3" y="12.4" transform="matrix(0.2894 -0.9572 0.9572 0.2894 727.4554 1009.3508)" class="st2" width="14.4" height="4.6"/>
		
			<rect x="1140.6" y="81.2" transform="matrix(0.9687 -0.2484 0.2484 0.9687 14.9075 287.9005)" class="st0" width="15.9" height="7.4"/>
		
			<rect x="1141.4" y="82.6" transform="matrix(0.9335 -0.3587 0.3587 0.9335 45.9956 417.6494)" class="st2" width="14.4" height="4.6"/>
		
			<rect x="602.6" y="109.3" transform="matrix(0.7179 -0.6962 0.6962 0.7179 89.4091 455.193)" class="st0" width="7.4" height="15.9"/>
		
			<rect x="604" y="110.1" transform="matrix(0.6326 -0.7745 0.7745 0.6326 131.921 512.7361)" class="st2" width="4.6" height="14.4"/>
		
			<rect x="484.8" y="136" transform="matrix(0.211 -0.9775 0.9775 0.211 252.2599 591.9119)" class="st0" width="15.9" height="7.4"/>
		
			<rect x="485.6" y="137.4" transform="matrix(9.636690e-02 -0.9953 0.9953 9.636690e-02 306.171 616.751)" class="st2" width="14.4" height="4.6"/>
		
			<rect x="501.1" y="49" transform="matrix(0.9984 -5.651854e-02 5.651854e-02 0.9984 -2.1632 28.8552)" class="st0" width="15.9" height="7.4"/>
		
			<rect x="501.9" y="50.3" transform="matrix(0.9851 -0.1718 0.1718 0.9851 -1.4733 88.2162)" class="st2" width="14.4" height="4.6"/>
		
			<rect x="130" y="103.8" transform="matrix(0.7711 -0.6368 0.6368 0.7711 -40.539 110.6943)" class="st0" width="7.4" height="15.9"/>
		
			<rect x="131.4" y="104.5" transform="matrix(0.6921 -0.7218 0.7218 0.6921 -39.4792 130.8682)" class="st2" width="4.6" height="14.4"/>
		
			<rect x="5.1" y="260.1" transform="matrix(0.2328 -0.9725 0.9725 0.2328 -253.9978 214.2073)" class="st0" width="7.4" height="15.9"/>
		
			<rect x="38.7" y="314.5" transform="matrix(0.1188 -0.9929 0.9929 0.1188 -283.3149 324.2125)" class="st2" width="4.6" height="14.4"/>
		
			<rect x="1007.1" y="194.7" transform="matrix(0.9913 -0.1317 0.1317 0.9913 -17.2878 135.4574)" class="st0" width="15.9" height="7.4"/>
		
			<rect x="1008" y="196.1" transform="matrix(0.9694 -0.2455 0.2455 0.9694 -17.6521 255.2694)" class="st2" width="14.4" height="4.6"/>
		
			<rect x="879.4" y="174.3" transform="matrix(0.3587 -0.9335 0.9335 0.3587 402.9377 942.4635)" class="st0" width="15.9" height="7.4"/>
		
			<rect x="880.1" y="175.7" transform="matrix(0.2482 -0.9687 0.9687 0.2482 494.6421 993.4284)" class="st2" width="14.4" height="4.6"/>
		
			<rect x="858.2" y="268.7" transform="matrix(0.6967 -0.7174 0.7174 0.6967 62.9304 702.2094)" class="st0" width="7.4" height="15.9"/>
		
			<rect x="859.5" y="269.4" transform="matrix(0.6089 -0.7932 0.7932 0.6089 117.6064 791.8069)" class="st2" width="4.6" height="14.4"/>
		
			<rect x="625.4" y="98" transform="matrix(0.5182 -0.8553 0.8553 0.5182 218.1967 590.6696)" class="st0" width="15.9" height="7.4"/>
		
			<rect x="626.1" y="99.3" transform="matrix(0.4156 -0.9095 0.9095 0.4156 277.6249 635.3977)" class="st2" width="14.4" height="4.6"/>
		<rect x="434.5" y="53" transform="matrix(0.769 -0.6392 0.6392 0.769 62.2034 294.1776)" class="st0" width="7.4" height="16"/>
		
			<rect x="435.1" y="53.6" transform="matrix(0.689 -0.7248 0.7248 0.689 91.9478 335.9361)" class="st2" width="4.6" height="14.4"/>
		
			<rect x="997.2" y="94.2" transform="matrix(0.7023 -0.7119 0.7119 0.7023 229.5697 744.7507)" class="st0" width="15.9" height="7.4"/>
		
			<rect x="997.9" y="95.6" transform="matrix(0.6151 -0.7884 0.7884 0.6151 309.6487 830.1851)" class="st2" width="14.4" height="4.6"/>
		
			<rect x="721.8" y="69.2" transform="matrix(0.6435 -0.7655 0.7655 0.6435 204.421 584.6205)" class="st0" width="15.9" height="7.4"/>
		
			<rect x="722.6" y="70.6" transform="matrix(0.5506 -0.8348 0.8348 0.5506 267.1111 641.9809)" class="st2" width="14.4" height="4.6"/>
		
			<rect x="872.2" y="100.6" transform="matrix(0.2854 -0.9584 0.9584 0.2854 529.1106 918.1227)" class="st0" width="15.9" height="7.4"/>
		
			<rect x="877.2" y="104.8" transform="matrix(0.1709 -0.9853 0.9853 0.1709 627.7352 960.1724)" class="st2" width="14.3" height="4.6"/>
		<rect x="771.5" y="50" transform="matrix(0.937 -0.3494 0.3494 0.937 30.3572 275.7241)" class="st0" width="15.9" height="7.4"/>
		
			<rect x="772.3" y="51.5" transform="matrix(0.8903 -0.4554 0.4554 0.8903 61.0336 360.8815)" class="st2" width="14.4" height="4.6"/>
		
			<rect x="1232.8" y="201.6" transform="matrix(0.3528 -0.9357 0.9357 0.3528 610.8981 1293.8677)" class="st0" width="15.9" height="7.4"/>
		
			<rect x="1233.6" y="202.9" transform="matrix(0.2423 -0.9702 0.9702 0.2423 741.1219 1359.3828)" class="st2" width="14.4" height="4.6"/>
		
			<rect x="1065.4" y="180.5" transform="matrix(0.3757 -0.9267 0.9267 0.3757 499.2985 1109.6865)" class="st0" width="15.9" height="7.4"/>
		
			<rect x="1066.1" y="182" transform="matrix(0.2659 -0.964 0.964 0.2659 610.2278 1169.9395)" class="st2" width="14.4" height="4.6"/>
		
			<rect x="740.8" y="297.9" transform="matrix(0.2659 -0.964 0.964 0.2659 259.7327 941.4673)" class="st2" width="14.4" height="4.6"/>
		
			<rect x="1115.1" y="214.1" transform="matrix(0.2608 -0.9654 0.9654 0.2608 612.5934 1244.1959)" class="st0" width="7.4" height="15.9"/>
		
			<rect x="1116.4" y="214.8" transform="matrix(0.1473 -0.9891 0.9891 0.1473 734.3314 1295.8364)" class="st2" width="4.6" height="14.4"/>
		
			<rect x="155.5" y="171.1" transform="matrix(0.736 -0.677 0.677 0.736 -75.159 156.8181)" class="st0" width="15.9" height="7.4"/>
		
			<rect x="156.3" y="172.5" transform="matrix(0.6526 -0.7577 0.7577 0.6526 -75.6358 184.5612)" class="st2" width="14.4" height="4.6"/>
	</g>
</g>
<g>
	<g>
		<g>
			
				<rect x="601.9" y="247.8" transform="matrix(0.5722 -0.8201 0.8201 0.5722 49.3127 606.0435)" class="st0" width="7.4" height="15.9"/>
			
				<rect x="603.3" y="248.6" transform="matrix(0.4735 -0.8808 0.8808 0.4735 93.5893 668.0676)" class="st1" width="4.6" height="14.4"/>
		</g>
	</g>
</g>
<g>
	<g>
		<g>
			
				<rect x="86.5" y="269.9" transform="matrix(0.3267 -0.9451 0.9451 0.3267 -201.9632 272.3284)" class="st0" width="7.4" height="15.9"/>
			
				<rect x="87.8" y="270.7" transform="matrix(0.2151 -0.9766 0.9766 0.2151 -200.6464 306.1718)" class="st1" width="4.6" height="14.4"/>
		</g>
	</g>
</g>
<g>
	<g>
		<g>
			
				<rect x="1009" y="447.7" transform="matrix(0.6014 -0.7989 0.7989 0.6014 39.5764 990.6954)" class="st0" width="7.4" height="15.9"/>
			
				<rect x="1010.3" y="448.5" transform="matrix(0.5049 -0.8632 0.8632 0.5049 108.0312 1099.7147)" class="st1" width="4.6" height="14.4"/>
		</g>
	</g>
</g>
</svg>
