<svg xmlns="http://www.w3.org/2000/svg" viewBox="0 0 1210.1 567.03"><title>confetti-blue</title><g id="d596207e-0c4b-4e8d-b14f-20fe635de4cf" data-name="Layer 2"><g id="4945438e-2acb-4c28-b93b-e27b40c01884" data-name="confetti-blue"><rect x="363.02" y="259.13" width="14.49" height="7.77" transform="translate(-64.11 395.64) rotate(-52.37)" fill="none"/><polygon points="371.47 256.03 375.38 258.5 369.05 270 365.14 267.53 371.47 256.03" fill="#d2ebf9" stroke="#3f3f3f" stroke-miterlimit="10"/><rect x="203.76" y="551.15" width="14.49" height="7.77" transform="translate(-349.19 751.94) rotate(-88.55)" fill="none"/><polygon points="207.85 548.69 212.47 548.37 214.15 561.39 209.53 561.7 207.85 548.69" fill="#d2ebf9" stroke="#3f3f3f" stroke-miterlimit="10"/><rect x="126.54" y="175.9" width="14.49" height="7.77" transform="translate(-87.73 145.84) rotate(-44.63)" fill="none"/><polygon points="135.92 173.03 139.47 176 131.65 186.54 128.1 183.57 135.92 173.03" fill="#d2ebf9" stroke="#3f3f3f" stroke-miterlimit="10"/><rect x="-1.35" y="270.7" width="14.49" height="7.77" transform="translate(-257.56 196.97) rotate(-72.35)" fill="none"/><polygon points="4.64 267.61 9.17 268.59 7.15 281.56 2.63 280.58 4.64 267.61" fill="#d2ebf9" stroke="#3f3f3f" stroke-miterlimit="10"/><rect x="889.06" y="555.68" width="14.49" height="7.77" transform="translate(280.92 1418.49) rotate(-86.36)" fill="none"/><polygon points="893.39 553.1 898.02 552.96 899.2 566.02 894.58 566.16 893.39 553.1" fill="#d2ebf9" stroke="#3f3f3f" stroke-miterlimit="10"/><rect x="739.45" y="357.46" width="14.49" height="7.77" transform="translate(-80.78 419.71) rotate(-29.86)" fill="none"/><polygon points="750.48 355.36 753.15 359.14 742.9 367.33 740.23 363.55 750.48 355.36" fill="#d2ebf9" stroke="#3f3f3f" stroke-miterlimit="10"/><rect x="905.95" y="267.18" width="14.49" height="7.77" transform="translate(340.45 1032.22) rotate(-69.57)" fill="none"/><polygon points="912.28 264.03 916.75 265.24 914.1 278.09 909.63 276.89 912.28 264.03" fill="#d2ebf9" stroke="#3f3f3f" stroke-miterlimit="10"/><rect x="1201.28" y="308.76" width="7.77" height="14.49" transform="translate(-33.99 186.48) rotate(-8.73)" fill="none"/><polygon points="1200.94 310.31 1205.43 309.19 1209.38 321.7 1204.89 322.83 1200.94 310.31" fill="#d2ebf9" stroke="#3f3f3f" stroke-miterlimit="10"/><rect x="884.23" y="10.98" width="14.49" height="7.77" transform="translate(772.15 898.44) rotate(-83.26)" fill="none"/><polygon points="888.92 8.25 893.55 8.36 894.02 21.48 889.39 21.37 888.92 8.25" fill="#d2ebf9" stroke="#3f3f3f" stroke-miterlimit="10"/><rect x="682.48" y="46.13" width="7.77" height="14.49" transform="translate(31.3 265.11) rotate(-22.36)" fill="none"/><polygon points="680.92 48.84 685.02 46.68 691.81 57.91 687.71 60.07 680.92 48.84" fill="#d2ebf9" stroke="#3f3f3f" stroke-miterlimit="10"/><rect x="13.13" y="3.99" width="14.49" height="7.77" transform="translate(0.41 16.73) rotate(-45.05)" fill="none"/><polygon points="22.46 1.1 26.03 4.04 18.29 14.64 14.72 11.69 22.46 1.1" fill="#d2ebf9" stroke="#3f3f3f" stroke-miterlimit="10"/><rect x="910.58" y="346.41" width="7.77" height="14.49" transform="translate(-65.63 380.73) rotate(-22.73)" fill="none"/><polygon points="908.99 349.15 913.07 346.97 919.93 358.16 915.85 360.34 908.99 349.15" fill="#d2ebf9" stroke="#3f3f3f" stroke-miterlimit="10"/><rect x="1036.6" y="292.52" width="14.49" height="7.77" transform="translate(557.69 1266.52) rotate(-79.24)" fill="none"/><polygon points="1041.77 289.63 1046.38 290.07 1045.93 303.18 1041.32 302.75 1041.77 289.63" fill="#d2ebf9" stroke="#3f3f3f" stroke-miterlimit="10"/><rect x="908.9" y="35.4" width="14.49" height="7.77" transform="translate(37.36 301.21) rotate(-19.05)" fill="none"/><polygon points="920.99 34.11 922.9 38.32 911.3 44.45 909.38 40.24 920.99 34.11" fill="#d2ebf9" stroke="#3f3f3f" stroke-miterlimit="10"/><rect x="428.32" y="32.16" width="14.49" height="7.77" transform="translate(299.92 451.52) rotate(-76.65)" fill="none"/><polygon points="433.79 29.18 438.38 29.83 437.34 42.91 432.75 42.27 433.79 29.18" fill="#d2ebf9" stroke="#3f3f3f" stroke-miterlimit="10"/><rect x="613.16" y="412.03" width="14.49" height="7.77" transform="translate(-7.16 820.94) rotate(-66.68)" fill="none"/><polygon points="619.85 408.85 624.25 410.27 620.96 422.98 616.55 421.55 619.85 408.85" fill="#d2ebf9" stroke="#3f3f3f" stroke-miterlimit="10"/></g></g></svg>