<svg xmlns="http://www.w3.org/2000/svg" viewBox="0 0 100.20384 22.91309"><title>logo-6-hover</title><g id="Layer_2" data-name="Layer 2"><g id="Layer_1-2" data-name="Layer 1"><path d="M16.68164.15527V15.16211c0,4.74414-3.44141,7.751-8.68164,7.751A12.37934,12.37934,0,0,1,.99219,20.71191l1.61328-2.915A8.45942,8.45942,0,0,0,7.7832,19.5332c2.97656,0,4.86719-1.64258,4.86719-4.27832V13.30176a5.99192,5.99192,0,0,1-5.27051,2.60449c-4.40332,0-7.37988-3.22461-7.37988-8C0,3.22461,2.94629.03125,7.25586.03125a6.13983,6.13983,0,0,1,5.39453,2.60449V.15527ZM12.65039,8c0-2.791-1.79785-4.74414-4.40234-4.74414S3.8457,5.24023,3.81445,8C3.8457,10.79,5.6123,12.74316,8.248,12.74316,10.85254,12.74316,12.65039,10.79,12.65039,8Z"/><path d="M35.2959,0V3.90625c-3.50391-.2168-5.64355,1.83008-5.64355,4.83789v7.999H25.62207V.15527h4.03027V3.34863A6.03877,6.03877,0,0,1,35.2959,0Z"/><path d="M52.52344,16.74316V14.72754a6.50688,6.50688,0,0,1-5.36328,2.20215c-3.56641,0-5.79883-2.20215-5.79883-5.14746,0-3.06934,2.26367-4.96094,6.29492-4.99219h4.83594V6.35645c0-1.92285-1.27051-3.06934-3.751-3.06934a9.711,9.711,0,0,0-4.93066,1.5498l-1.457-2.79A13.34156,13.34156,0,0,1,49.64063,0c4.33984,0,6.79,2.20117,6.82031,5.89063l.03125,10.85254Zm-.03125-5.7666V9.48828H48.30664c-2.13867,0-3.13086.58887-3.13086,2.0459,0,1.39551,1.11523,2.29395,2.94531,2.29395C50.44629,13.82813,52.27539,12.58789,52.49219,10.97656Z"/><path d="M72.28516,3.56543c-2.666,0-4.52637,1.98438-4.52637,4.89941,0,2.97656,1.86035,4.96094,4.52637,4.96094A5.33833,5.33833,0,0,0,76.75,11.47266l2.51172,2.07715c-1.457,2.1084-3.9375,3.34863-7.19336,3.34863a7.98285,7.98285,0,0,1-8.37109-8.40234A8.03132,8.03132,0,0,1,72.13086.03125a8.45914,8.45914,0,0,1,6.94531,3.03809L76.626,5.39453A5.69181,5.69181,0,0,0,72.28516,3.56543Z"/><path d="M100.16211,9.85938H87.915a4.62731,4.62731,0,0,0,4.74414,3.7832A6.16218,6.16218,0,0,0,97.124,11.78223l2.1709,2.26367a9.21094,9.21094,0,0,1-6.97656,2.85254c-5.14746,0-8.52734-3.41113-8.52734-8.40234A8.04806,8.04806,0,0,1,92.22461.03125C98.05469.03125,100.56543,3.84473,100.16211,9.85938Zm-3.6582-2.69727a3.9427,3.9427,0,0,0-4.248-4,4.34482,4.34482,0,0,0-4.43359,4Z"/></g></g></svg>