<svg xmlns="http://www.w3.org/2000/svg" viewBox="0 0 120.93311 113.51953"><defs><style>.cls-1{font-size:31px;font-family:Montserrat-Medium, Montserrat;letter-spacing:0.1em;}</style></defs><title>spritesheet</title><g id="Layer_2" data-name="Layer 2"><g id="Layer_1-2" data-name="Layer 1"><text class="cls-1" transform="translate(0 39.34961)">g</text><text class="cls-1" transform="translate(27 26.34961)">r</text><text class="cls-1" transform="translate(40 47.34961)">a</text><text class="cls-1" transform="translate(65 29.34961)">c</text><text class="cls-1" transform="translate(93 36.34961)">e</text><path d="M17.67334,90.76172v15.00684c0,4.74414-3.44141,7.751-8.68164,7.751a12.37934,12.37934,0,0,1-7.00781-2.20117l1.61328-2.915a8.45942,8.45942,0,0,0,5.17773,1.73633c2.97656,0,4.86719-1.64258,4.86719-4.27832V103.9082a5.99192,5.99192,0,0,1-5.27051,2.60449c-4.40332,0-7.37988-3.22461-7.37988-8,0-4.68164,2.94629-7.875,7.25586-7.875a6.13983,6.13983,0,0,1,5.39453,2.60449V90.76172Zm-4.03125,7.84473c0-2.791-1.79785-4.74414-4.40234-4.74414S4.8374,95.84668,4.80615,98.60645c.03125,2.79,1.79785,4.74316,4.43359,4.74316C11.84424,103.34961,13.64209,101.39648,13.64209,98.60645Z"/><path d="M38.2876,90.60645V94.5127c-3.50391-.2168-5.64355,1.83008-5.64355,4.83789v7.999H28.61377V90.76172H32.644v3.19336A6.03877,6.03877,0,0,1,38.2876,90.60645Z"/><path d="M56.51514,107.34961V105.334a6.50688,6.50688,0,0,1-5.36328,2.20215c-3.56641,0-5.79883-2.20215-5.79883-5.14746,0-3.06934,2.26367-4.96094,6.29492-4.99219h4.83594v-.43359c0-1.92285-1.27051-3.06934-3.751-3.06934a9.711,9.711,0,0,0-4.93066,1.5498l-1.457-2.79a13.34156,13.34156,0,0,1,7.28711-2.04687c4.33984,0,6.79,2.20117,6.82031,5.89063l.03125,10.85254Zm-.03125-5.7666v-1.48828H52.29834c-2.13867,0-3.13086.58887-3.13086,2.0459,0,1.39551,1.11523,2.29395,2.94531,2.29395C54.438,104.43457,56.26709,103.19434,56.48389,101.583Z"/><path d="M77.27686,94.17188c-2.666,0-4.52637,1.98438-4.52637,4.89941,0,2.97656,1.86035,4.96094,4.52637,4.96094a5.33833,5.33833,0,0,0,4.46484-1.95312l2.51172,2.07715c-1.457,2.1084-3.9375,3.34863-7.19336,3.34863a8.43371,8.43371,0,0,1,.0625-16.86719,8.45914,8.45914,0,0,1,6.94531,3.03809l-2.4502,2.3252A5.69181,5.69181,0,0,0,77.27686,94.17188Z"/><path d="M107.15381,100.46582H94.90674a4.62731,4.62731,0,0,0,4.74414,3.7832,6.16218,6.16218,0,0,0,4.46484-1.86035l2.1709,2.26367a9.21094,9.21094,0,0,1-6.97656,2.85254c-5.14746,0-8.52734-3.41113-8.52734-8.40234a8.04806,8.04806,0,0,1,8.43359-8.46484C105.04639,90.6377,107.55713,94.45117,107.15381,100.46582Zm-3.6582-2.69727a3.9427,3.9427,0,0,0-4.248-4,4.34482,4.34482,0,0,0-4.43359,4Z"/></g></g></svg>